<svg width="50" height="48" viewBox="0 0 50 48" fill="none" xmlns="http://www.w3.org/2000/svg">
<path d="M25.0001 2.32319e-08C21.1654 -0.000161945 17.382 0.846577 13.9427 2.47471C10.5034 4.10285 7.50036 6.46873 5.16587 9.38934C2.83139 12.3099 1.22806 15.707 0.479911 19.3176C-0.268235 22.9283 -0.141138 26.6558 0.85137 30.2117C1.84388 33.7677 3.67519 37.0568 6.20363 39.8246C8.73207 42.5924 11.8899 44.7646 15.4327 46.1734C18.9756 47.5821 22.8085 48.1895 26.635 47.9485C30.4615 47.7076 34.1789 46.6249 37.4998 44.784C37.7985 44.634 38.0626 44.4275 38.2761 44.1769C38.4895 43.9264 38.648 43.637 38.7419 43.3261C38.8359 43.0152 38.8634 42.6893 38.8227 42.368C38.782 42.0467 38.6741 41.7366 38.5054 41.4563C38.3366 41.1761 38.1106 40.9315 37.8409 40.7373C37.5711 40.5431 37.2632 40.4033 36.9358 40.3263C36.6083 40.2493 36.268 40.2367 35.9353 40.2892C35.6026 40.3418 35.2844 40.4583 34.9998 40.632C31.1873 42.7452 26.7549 43.5917 22.3902 43.0401C18.0254 42.4886 13.9722 40.5699 10.859 37.5815C7.74589 34.5932 5.74682 30.7022 5.17182 26.512C4.59683 22.3218 5.47804 18.0666 7.67881 14.4062C9.87958 10.7458 13.2769 7.88477 17.344 6.26686C21.411 4.64894 25.9205 4.36452 30.1731 5.4577C34.4257 6.55088 38.1837 8.96058 40.8644 12.3131C43.5451 15.6656 44.9986 19.7736 44.9996 24V25.8C44.9996 26.9139 44.5387 27.9822 43.7182 28.7698C42.8978 29.5575 41.785 30 40.6247 30C39.4644 30 38.3516 29.5575 37.5312 28.7698C36.7107 27.9822 36.2498 26.9139 36.2498 25.8V15.6C36.2498 14.9635 35.9864 14.353 35.5176 13.9029C35.0488 13.4529 34.4129 13.2 33.7499 13.2C33.1685 13.1876 32.6008 13.3701 32.1445 13.7162C31.6883 14.0622 31.3719 14.5502 31.2499 15.096C29.4122 13.8758 27.2344 13.2151 25.0001 13.2C23.118 13.1784 21.2604 13.6105 19.5974 14.4566C17.9343 15.3028 16.519 16.536 15.481 18.0434C14.4431 19.5507 13.8156 21.284 13.6562 23.0844C13.4968 24.8848 13.8104 26.6949 14.5685 28.3488C15.3265 30.0027 16.5047 31.4476 17.995 32.5511C19.4854 33.6547 21.2404 34.3816 23.0992 34.6653C24.9581 34.949 26.8614 34.7804 28.6347 34.175C30.4081 33.5696 31.995 32.5467 33.2499 31.2C34.4377 32.6768 36.0754 33.7615 37.9351 34.3032C39.7949 34.845 41.7843 34.817 43.6266 34.223C45.469 33.6291 47.0728 32.4987 48.215 30.9891C49.3571 29.4795 49.9809 27.6657 49.9995 25.8V24C49.9995 20.8483 49.3529 17.7274 48.0965 14.8156C46.8402 11.9038 44.9988 9.25804 42.6773 7.02944C40.3559 4.80083 37.6 3.033 34.5669 1.82689C31.5339 0.620778 28.283 2.3232e-08 25.0001 2.32319e-08ZM25.0001 30C23.764 30 22.5556 29.6481 21.5278 28.9888C20.5 28.3295 19.699 27.3925 19.2259 26.2961C18.7529 25.1997 18.6291 23.9933 18.8703 22.8295C19.1114 21.6656 19.7067 20.5965 20.5807 19.7574C21.4548 18.9182 22.5684 18.3468 23.7808 18.1153C24.9931 17.8838 26.2498 18.0026 27.3918 18.4567C28.5338 18.9108 29.5099 19.6799 30.1966 20.6666C30.8834 21.6533 31.2499 22.8133 31.2499 24C31.2499 25.5913 30.5915 27.1174 29.4194 28.2426C28.2473 29.3679 26.6576 30 25.0001 30Z" fill="white"/>
</svg>
