<svg width="50" height="50" viewBox="0 0 50 50" fill="none" xmlns="http://www.w3.org/2000/svg">
<path d="M49.8496 14.6928C49.7279 12.0316 49.3052 10.2143 48.6872 8.62433C48.0597 6.95615 47.0755 5.44514 45.8037 4.1962C44.5551 2.92437 43.0437 1.93979 41.3756 1.31188C39.7852 0.69428 37.9682 0.27199 35.3071 0.151063C32.641 0.0289919 31.7892 0 24.9997 0C18.2103 0 17.3584 0.0289919 14.6923 0.1503C12.0312 0.27199 10.2142 0.694662 8.62384 1.31265C6.95566 1.94017 5.44465 2.92437 4.19571 4.1962C2.92388 5.44476 1.9393 6.95577 1.3114 8.62395C0.693792 10.2143 0.271502 12.0316 0.150575 14.6924C0.0285036 17.3589 -0.000488281 18.2104 -0.000488281 24.9998C-0.000488281 31.7896 0.0285036 32.6415 0.150575 35.3076C0.271883 37.9684 0.694555 39.7857 1.31254 41.376C1.94006 43.0438 2.92426 44.5552 4.19609 45.8038C5.44465 47.0756 6.95605 48.0598 8.62423 48.6874C10.2142 49.3057 12.0315 49.728 14.6927 49.8497C17.3592 49.9714 18.2106 50 25.0001 50C31.7895 50 32.6414 49.9714 35.3075 49.8497C37.9686 49.728 39.7856 49.3057 41.3759 48.6874C44.734 47.3888 47.3887 44.7341 48.6872 41.376C49.3056 39.7857 49.7279 37.9684 49.8496 35.3076C49.9709 32.6411 49.9999 31.7896 49.9999 25.0002C49.9999 18.2104 49.9709 17.3589 49.8496 14.6928ZM45.3494 35.1027C45.2383 37.5403 44.8309 38.8641 44.4888 39.7449C43.6476 41.9254 41.9245 43.6485 39.744 44.4896C38.8632 44.8318 37.5395 45.2392 35.1019 45.3502C32.4663 45.4708 31.6755 45.496 24.9997 45.496C18.3235 45.496 17.5331 45.4708 14.8972 45.3502C12.4599 45.2392 11.1362 44.8318 10.255 44.4896C9.16935 44.0887 8.18706 43.4497 7.38063 42.6193C6.55016 41.8128 5.91119 40.8309 5.51026 39.7449C5.16808 38.8641 4.76067 37.5403 4.64966 35.1027C4.5295 32.4668 4.50394 31.676 4.50394 25.0006C4.50394 18.3248 4.5295 17.5344 4.64966 14.898C4.76105 12.4604 5.16808 11.1367 5.51026 10.2559C5.91119 9.16984 6.55054 8.18755 7.38063 7.38111C8.18706 6.55065 9.16935 5.91168 10.2554 5.51114C11.1362 5.16857 12.4599 4.76154 14.8975 4.65015C17.5335 4.52999 18.3243 4.50443 24.9997 4.50443H24.9993C31.6747 4.50443 32.4655 4.52999 35.1019 4.65053C37.5395 4.76154 38.8628 5.16895 39.744 5.51114C40.8297 5.91206 41.812 6.55103 42.6184 7.38111C43.4489 8.18755 44.0878 9.16984 44.4884 10.2559C44.8309 11.1367 45.2383 12.4604 45.3494 14.898C45.4695 17.534 45.4951 18.3248 45.4951 25.0002C45.4951 31.676 45.4699 32.4664 45.3494 35.1027Z" fill="white"/>
<path d="M25.0003 12.1621C17.9102 12.1621 12.1626 17.9101 12.1626 25.0002C12.1626 32.0902 17.9102 37.8379 25.0003 37.8379C32.0907 37.8379 37.8384 32.0902 37.8384 25.0002C37.8384 17.9101 32.0907 12.1621 25.0003 12.1621ZM25.0003 33.3335C20.3982 33.3331 16.667 29.6023 16.6674 24.9998C16.6674 20.3977 20.3982 16.6665 25.0007 16.6665C29.6031 16.6669 33.3339 20.3977 33.3339 24.9998C33.3339 29.6023 29.6028 33.3335 25.0003 33.3335Z" fill="white"/>
<path d="M41.3464 11.6551C41.3464 13.3118 40.0032 14.655 38.3465 14.655C36.6894 14.655 35.3462 13.3118 35.3462 11.6551C35.3462 9.99795 36.6894 8.65479 38.3465 8.65479C40.0032 8.65479 41.3464 9.99795 41.3464 11.6551Z" fill="white"/>
</svg>
