<svg width="50" height="46" viewBox="0 0 50 46" fill="none" xmlns="http://www.w3.org/2000/svg">
<path d="M47.8451 1.06578C47.2044 0.532827 46.4313 0.18354 45.6079 0.055086C44.7846 -0.0733676 43.9418 0.0238187 43.1693 0.336302L2.84725 16.6158C1.98493 16.9706 1.25091 17.5793 0.742596 18.361C0.234284 19.1427 -0.0242765 20.0605 0.00123289 20.9926C0.0267423 21.9247 0.335115 22.827 0.885422 23.5797C1.43573 24.3325 2.20194 24.9001 3.08237 25.2072L11.2386 28.0438L15.7847 43.0775C15.8465 43.2783 15.9362 43.4695 16.0511 43.6454C16.0685 43.6724 16.0931 43.6925 16.1117 43.7187C16.2444 43.9039 16.4049 44.0677 16.5874 44.2042C16.6393 44.2437 16.689 44.2808 16.7445 44.316C16.9581 44.4577 17.1946 44.5613 17.4436 44.6222L17.4703 44.6244L17.4854 44.6309C17.6351 44.6614 17.7874 44.6768 17.9402 44.6771C17.9549 44.6771 17.9679 44.67 17.9825 44.6698C18.213 44.6657 18.4416 44.626 18.66 44.5521C18.7108 44.5348 18.7543 44.5058 18.8036 44.4849C18.9664 44.4174 19.1207 44.3309 19.2632 44.2272C19.3774 44.131 19.4915 44.0348 19.6057 43.9388L25.6856 37.2261L34.7537 44.2508C35.552 44.8723 36.5347 45.2102 37.5464 45.211C38.6066 45.2096 39.634 44.8439 40.4566 44.175C41.2791 43.5061 41.8466 42.5748 42.064 41.5371L49.4051 5.49987C49.5715 4.68879 49.5142 3.84774 49.2394 3.0667C48.9646 2.28566 48.4826 1.59402 47.8451 1.06578ZM18.8324 28.7601C18.5204 29.0709 18.3071 29.4668 18.2193 29.8983L17.5229 33.2823L15.7588 27.4479L24.9056 22.6848L18.8324 28.7601ZM37.5113 40.6934L26.7953 32.3921C26.3469 32.0457 25.7845 31.8809 25.2201 31.9306C24.6557 31.9803 24.1308 32.2408 23.7498 32.6602L21.8027 34.8094L22.4908 31.4649L38.4276 15.5281C38.808 15.1482 39.0397 14.6447 39.0809 14.1086C39.122 13.5726 38.9698 13.0396 38.6519 12.6061C38.3339 12.1726 37.8712 11.8673 37.3476 11.7455C36.824 11.6237 36.2741 11.6935 35.7974 11.9422L12.9256 23.8506L4.54575 20.7841L44.9974 4.60113L37.5113 40.6934Z" fill="white"/>
</svg>
