<svg width="60" height="33" viewBox="0 0 60 33" fill="none" xmlns="http://www.w3.org/2000/svg">
<path fill-rule="evenodd" clip-rule="evenodd" d="M29.3991 32.8352H32.9794C33.5843 32.768 34.1545 32.5282 34.6169 32.1465C34.9371 31.6972 35.0999 31.1609 35.0812 30.6161C35.0812 30.6161 35.0079 25.9836 37.2441 25.3185C39.4803 24.6533 42.2663 29.792 45.2663 31.7933C47.5269 33.2943 49.2499 32.9706 49.2499 32.9706L57.2598 32.8646C57.2598 32.8646 61.4512 32.6115 59.4655 29.4389C59.3005 29.1799 58.3046 27.0844 53.5084 22.7992C48.4861 18.308 49.1582 19.0379 55.2069 11.2681C58.8728 6.55907 60.3636 3.65128 59.9054 2.43871C59.4472 1.22615 56.7588 1.56755 56.7588 1.56755L47.7407 1.62641C47.3404 1.58001 46.9347 1.64754 46.5738 1.82066C46.2323 2.06414 45.9593 2.38581 45.7795 2.75657C44.8452 5.08933 43.7322 7.35196 42.4496 9.52573C38.4294 16.0948 36.8286 16.4421 36.1687 16.0359C34.6413 15.0882 35.0262 12.2157 35.0262 10.1497C35.0262 3.78077 36.0282 1.13197 33.0711 0.44328C31.6957 0.110068 30.2788 -0.0365412 28.8614 0.00769754C25.6476 0.00769754 22.9227 0.00769653 21.383 0.749362C20.3565 1.23203 19.55 2.30921 20.0449 2.37396C21.071 2.46066 22.024 2.9218 22.7088 3.66305C23.6314 4.86972 23.6008 7.59505 23.6008 7.59505C23.6008 7.59505 24.1263 15.0882 22.3789 16.0182C21.1569 16.654 19.495 15.3531 15.9147 9.39035C14.6923 7.31334 13.6107 5.16234 12.6765 2.95081C12.5105 2.5769 12.2551 2.24611 11.9311 1.98547C11.7877 1.88455 11.6342 1.79778 11.4728 1.72648C11.0109 1.53223 10.5104 1.4378 10.0065 1.44982L1.97818 1.5028C1.97818 1.5028 0.689006 1.5028 0.21855 2.09142C-0.251907 2.68005 0.181891 3.56298 0.181891 3.56298C0.181891 3.56298 6.90269 18.6847 14.4911 26.3074C21.4563 33.2885 29.3991 32.8352 29.3991 32.8352Z" fill="white"/>
</svg>
