<svg width="155" height="44" viewBox="0 0 155 44" fill="none" xmlns="http://www.w3.org/2000/svg">
<path d="M53.2117 15.1796H54.8626V19.4724H53.5004V16.501H45.3691V6.18213H46.7313V15.1796H51.8496V6.18213H53.2117V15.1796Z" fill="black"/>
<path d="M63.8199 6.18213H64.9757V16.5001H63.6135V8.65845L58.0825 16.5001H56.9268V6.18213H58.2889V14.0238L63.8199 6.18213Z" fill="black"/>
<path d="M77.9358 7.66803C78.926 8.67238 79.422 9.89725 79.422 11.3418C79.422 12.7863 78.9269 14.0112 77.9358 15.0155C76.9457 16.0199 75.6384 16.5911 74.015 16.7284V20.6289H72.6528V16.7284C71.0294 16.5911 69.7222 16.0199 68.732 15.0155C67.7418 14.0112 67.2458 12.7863 67.2458 11.3418C67.2458 9.89725 67.7409 8.67326 68.732 7.66803C69.7222 6.66369 71.0294 6.09243 72.6528 5.95516V2.05469H74.015V5.95516C75.6375 6.09243 76.9448 6.66369 77.9358 7.66803ZM69.7018 8.60684C68.972 9.357 68.608 10.2683 68.608 11.3409C68.608 12.4143 68.972 13.3257 69.7018 14.0749C70.4307 14.8251 71.4147 15.2617 72.6528 15.3857V7.29605C71.4147 7.42005 70.4307 7.85668 69.7018 8.60684ZM74.015 15.3857C75.2531 15.2617 76.2362 14.8251 76.966 14.0749C77.6949 13.3257 78.0598 12.4134 78.0598 11.3409C78.0598 10.2675 77.6949 9.35611 76.966 8.60684C76.2362 7.85756 75.2531 7.42005 74.015 7.29605V15.3857Z" fill="black"/>
<path d="M87.2199 5.93359C88.6919 5.93359 89.9469 6.45702 90.9858 7.50211C92.0247 8.54808 92.5437 9.82698 92.5437 11.3406C92.5437 12.8542 92.0238 14.134 90.9858 15.1791C89.9469 16.225 88.6919 16.7476 87.2199 16.7476C85.3902 16.7476 84.0006 15.9912 83.0511 14.4776V20.6277H81.689V6.18158H83.0511V8.20355C84.0006 6.69084 85.3902 5.93359 87.2199 5.93359ZM84.2282 14.2402C85.012 15.0311 85.9756 15.427 87.1172 15.427C88.2588 15.427 89.2224 15.032 90.0062 14.2402C90.7901 13.4493 91.1824 12.4831 91.1824 11.3406C91.1824 10.199 90.7901 9.2327 90.0062 8.44091C89.2224 7.65001 88.2588 7.25412 87.1172 7.25412C85.9747 7.25412 85.012 7.65001 84.2282 8.44091C83.4444 9.23181 83.052 10.199 83.052 11.3406C83.0511 12.4831 83.4435 13.4493 84.2282 14.2402Z" fill="black"/>
<path d="M103.472 15.1897C102.42 16.2286 101.137 16.7476 99.6231 16.7476C98.1095 16.7476 96.827 16.2286 95.774 15.1897C94.7218 14.1508 94.1948 12.8684 94.1948 11.3406C94.1948 9.81369 94.7209 8.53036 95.774 7.49148C96.8261 6.45259 98.1095 5.93359 99.6231 5.93359C101.137 5.93359 102.419 6.45348 103.472 7.49148C104.524 8.53036 105.051 9.81281 105.051 11.3406C105.051 12.8684 104.525 14.1508 103.472 15.1897ZM96.7349 14.2402C97.5187 15.0311 98.4823 15.427 99.6239 15.427C100.766 15.427 101.729 15.032 102.513 14.2402C103.297 13.4493 103.689 12.4831 103.689 11.3406C103.689 10.199 103.297 9.2327 102.513 8.44091C101.729 7.65001 100.766 7.25412 99.6239 7.25412C98.4814 7.25412 97.5187 7.65001 96.7349 8.44091C95.9511 9.23181 95.5587 10.199 95.5587 11.3406C95.5579 12.4831 95.9502 13.4493 96.7349 14.2402Z" fill="black"/>
<path d="M114.441 10.2686C115.61 10.8328 116.196 11.7893 116.196 13.1373C116.196 14.1009 115.876 14.9015 115.237 15.5418C114.597 16.1813 113.679 16.501 112.481 16.501H107.322V11.094V7.46191V6.18213H111.449C112.454 6.18213 113.255 6.45403 113.854 6.99694C114.453 7.54074 114.752 8.22447 114.752 9.04991C114.75 9.49097 114.648 9.89661 114.441 10.2686ZM108.684 7.46191V9.85587H112.48C112.632 9.85587 112.844 9.87004 113.12 9.89749C113.299 9.62205 113.388 9.34041 113.388 9.05168C113.388 8.51497 113.202 8.10934 112.831 7.83389C112.46 7.55845 111.999 7.43534 111.449 7.4628H108.684V7.46191ZM112.48 15.2212C113.223 15.2212 113.801 15.0352 114.214 14.6641C114.626 14.293 114.833 13.7838 114.833 13.1373C114.833 12.4907 114.626 11.9885 114.214 11.6307C113.801 11.2729 113.223 11.094 112.48 11.094H108.684V15.2212H112.48Z" fill="black"/>
<path d="M121.871 5.93359C123.04 5.93359 123.986 6.28077 124.708 6.97602C125.431 7.67127 125.791 8.61007 125.791 9.79332V16.5005H124.429V15.3447C123.769 16.2808 122.702 16.7485 121.23 16.7485C120.212 16.7485 119.342 16.4597 118.619 15.8814C117.897 15.3039 117.536 14.4856 117.536 13.4254C117.536 12.3662 117.897 11.5478 118.619 10.9695C119.342 10.392 120.212 10.1024 121.23 10.1024C122.661 10.1024 123.727 10.5497 124.429 11.4442V9.79332C124.429 8.92626 124.185 8.28681 123.697 7.87409C123.208 7.46137 122.599 7.25501 121.871 7.25501C121.155 7.25501 120.55 7.43745 120.055 7.80146C119.56 8.16636 119.312 8.69244 119.312 9.3806H117.95C117.95 8.39043 118.314 7.56853 119.044 6.91491C119.772 6.26129 120.715 5.93359 121.871 5.93359ZM121.561 15.4678C122.386 15.4678 123.071 15.2756 123.614 14.8903C124.156 14.5051 124.428 14.0171 124.428 13.4254C124.428 12.8064 124.16 12.3113 123.623 11.9393C123.087 11.5673 122.398 11.3822 121.56 11.3822C120.679 11.3822 120.015 11.5682 119.568 11.9393C119.121 12.3104 118.897 12.8064 118.897 13.4254C118.897 14.0445 119.121 14.5396 119.568 14.9116C120.016 15.2827 120.68 15.4678 121.561 15.4678Z" fill="black"/>
<path d="M135.861 6.18253V16.5005H134.499V12.5381H132.642L129.134 16.5005H127.4L131.012 12.4761C130.2 12.3521 129.533 12.0084 129.011 11.4443C128.487 10.8801 128.227 10.1928 128.227 9.38066C128.227 8.4454 128.56 7.67841 129.228 7.0797C129.894 6.481 130.71 6.18164 131.673 6.18164H135.861V6.18253ZM131.671 11.2592H134.498V7.50305H131.671C131.094 7.50305 130.601 7.67487 130.196 8.0194C129.79 8.36303 129.587 8.81738 129.587 9.38155C129.587 9.94572 129.79 10.4001 130.196 10.7437C130.601 11.0873 131.094 11.2592 131.671 11.2592Z" fill="black"/>
<path d="M50.412 26.6841C51.9388 26.6841 53.2009 27.2004 54.1991 28.2322C55.1963 29.264 55.695 30.5509 55.695 32.0911C55.695 33.6321 55.1963 34.9181 54.1991 35.9499C53.2018 36.9817 51.9397 37.4981 50.412 37.4981C49.2013 37.4981 48.1314 37.1712 47.2032 36.5176C46.2741 35.864 45.6657 35.0084 45.377 33.9483H46.8215C47.0827 34.609 47.5406 35.1457 48.1943 35.5584C48.8479 35.9712 49.5874 36.1775 50.4128 36.1775C51.4172 36.1775 52.2772 35.8543 52.9928 35.2077C53.7084 34.5612 54.1415 33.7428 54.2929 32.7518H49.1543V31.4312H54.2921C54.1406 30.4402 53.7075 29.6218 52.9919 28.9753C52.2763 28.3288 51.4163 28.0055 50.412 28.0055C49.5865 28.0055 48.8505 28.2083 48.204 28.6139C47.5575 29.0196 47.096 29.5598 46.8215 30.2338H45.377C45.6799 29.1746 46.2918 28.3181 47.2138 27.6645C48.1349 27.0118 49.2013 26.6841 50.412 26.6841Z" fill="black"/>
<path d="M66.3016 37.2496H64.486L59.327 32.2766V37.2496H57.9648V26.9316H59.327V31.5132L64.2796 26.9316H66.0953L60.7299 31.8843L66.3016 37.2496Z" fill="black"/>
<path d="M75.7859 35.9402C74.7337 36.9791 73.4504 37.4981 71.9368 37.4981C70.4232 37.4981 69.1407 36.9791 68.0877 35.9402C67.0355 34.9013 66.5085 33.6188 66.5085 32.0911C66.5085 30.5633 67.0346 29.2817 68.0877 28.242C69.1399 27.2031 70.4232 26.6841 71.9368 26.6841C73.4504 26.6841 74.7328 27.204 75.7859 28.242C76.8381 29.2809 77.365 30.5633 77.365 32.0911C77.365 33.6188 76.8381 34.9013 75.7859 35.9402ZM69.0477 34.9907C69.8316 35.7816 70.7952 36.1775 71.9368 36.1775C73.0784 36.1775 74.042 35.7825 74.8258 34.9907C75.6096 34.1998 76.002 33.2336 76.002 32.0911C76.002 30.9494 75.6096 29.9832 74.8258 29.1914C74.042 28.4005 73.0784 28.0046 71.9368 28.0046C70.7943 28.0046 69.8316 28.4005 69.0477 29.1914C68.2639 29.9832 67.8716 30.9494 67.8716 32.0911C67.8716 33.2336 68.263 34.1998 69.0477 34.9907Z" fill="black"/>
<path d="M89.395 33.9483C89.1063 35.0076 88.5041 35.864 87.5892 36.5176C86.6743 37.1712 85.6248 37.4981 84.4424 37.4981C82.8872 37.4981 81.5941 36.9791 80.5623 35.9402C79.5305 34.9013 79.0142 33.6188 79.0142 32.0911C79.0142 30.5633 79.5305 29.2817 80.5623 28.242C81.5941 27.2031 82.8872 26.6841 84.4424 26.6841C85.6256 26.6841 86.6716 27.0109 87.5794 27.6645C88.4872 28.3181 89.093 29.1746 89.395 30.2338H87.9505C87.6751 29.5598 87.2207 29.0196 86.5884 28.6139C85.9551 28.2083 85.2395 28.0055 84.4424 28.0055C83.2999 28.0055 82.3372 28.4014 81.5534 29.1923C80.7695 29.9841 80.3772 30.9503 80.3772 32.092C80.3772 33.2345 80.7695 34.2007 81.5534 34.9916C82.3372 35.7825 83.3008 36.1784 84.4424 36.1784C85.2537 36.1784 85.9764 35.9721 86.6096 35.5593C87.242 35.1466 87.6892 34.6099 87.9514 33.9492H89.395V33.9483Z" fill="black"/>
<path d="M98.3514 26.9316H99.5072V37.2496H98.145V29.408L92.614 37.2496H91.4583V26.9316H92.8204V34.7733L98.3514 26.9316Z" fill="black"/>
<path d="M112.156 33.9483C111.867 35.0076 111.265 35.864 110.35 36.5176C109.435 37.1712 108.386 37.4981 107.203 37.4981C105.648 37.4981 104.355 36.9791 103.323 35.9402C102.291 34.9013 101.775 33.6188 101.775 32.0911C101.775 30.5633 102.291 29.2817 103.323 28.242C104.355 27.2031 105.648 26.6841 107.203 26.6841C108.386 26.6841 109.432 27.0109 110.34 27.6645C111.248 28.3181 111.854 29.1746 112.156 30.2338H110.711C110.436 29.5598 109.981 29.0196 109.349 28.6139C108.716 28.2083 108 28.0055 107.203 28.0055C106.061 28.0055 105.098 28.4014 104.314 29.1923C103.53 29.9841 103.138 30.9503 103.138 32.092C103.138 33.2345 103.53 34.2007 104.314 34.9916C105.098 35.7825 106.062 36.1784 107.203 36.1784C108.014 36.1784 108.737 35.9721 109.37 35.5593C110.003 35.1466 110.45 34.6099 110.712 33.9492H112.156V33.9483Z" fill="black"/>
<path d="M120.617 26.9316V28.2522H117.377V37.2496H116.015V28.2522H112.775V26.9316H117.377H120.617Z" fill="black"/>
<path d="M126.522 26.6841C128.035 26.6841 129.249 27.2208 130.165 28.2942C131.079 29.3676 131.537 30.6465 131.537 32.1327C131.537 32.2841 131.523 32.4976 131.496 32.7721H130.134H122.643C122.78 33.8181 123.203 34.6471 123.912 35.2591C124.62 35.8711 125.497 36.1775 126.543 36.1775C127.286 36.1775 127.933 36.0163 128.483 35.6922C129.033 35.3689 129.425 34.9465 129.659 34.423H131.165C130.877 35.3308 130.312 36.0704 129.473 36.6416C128.633 37.2129 127.65 37.4981 126.522 37.4981C124.953 37.4981 123.681 36.9888 122.704 35.9712C121.727 34.9535 121.239 33.6596 121.239 32.0911C121.239 30.5509 121.727 29.264 122.704 28.2322C123.681 27.2004 124.953 26.6841 126.522 26.6841ZM126.522 28.0055C125.448 28.0055 124.564 28.3217 123.87 28.9549C123.175 29.5882 122.766 30.4198 122.643 31.4525H130.134C130.01 30.3658 129.61 29.52 128.937 28.9142C128.262 28.3084 127.457 28.0055 126.522 28.0055Z" fill="black"/>
<path d="M143.711 26.9316V37.2496H142.349V29.2016L139.191 35.1657H138.118L134.96 29.2016V37.2496H133.598V26.9316H134.96H135.167L138.654 33.5555L142.142 26.9316H143.711Z" fill="black"/>
<path d="M150.315 26.6841C151.484 26.6841 152.43 27.0321 153.153 27.7265C153.875 28.4218 154.236 29.3606 154.236 30.5438V37.251H152.874V36.0952C152.213 37.0313 151.147 37.4989 149.675 37.4989C148.656 37.4989 147.786 37.2102 147.064 36.6319C146.341 36.0544 145.98 35.2361 145.98 34.1759C145.98 33.1167 146.342 32.2983 147.064 31.72C147.786 31.1416 148.656 30.8529 149.675 30.8529C151.105 30.8529 152.171 31.3002 152.874 32.1947V30.5438C152.874 29.6767 152.629 29.0373 152.141 28.6246C151.652 28.2119 151.044 28.0055 150.315 28.0055C149.599 28.0055 148.994 28.1879 148.499 28.5519C148.004 28.9168 147.756 29.4429 147.756 30.1311H146.394C146.394 29.14 146.758 28.319 147.488 27.6645C148.217 27.0118 149.159 26.6841 150.315 26.6841ZM150.005 36.2183C150.83 36.2183 151.515 36.0261 152.058 35.6408C152.601 35.2555 152.873 34.7675 152.873 34.1759C152.873 33.5568 152.604 33.0618 152.068 32.6898C151.531 32.3178 150.843 32.1327 150.004 32.1327C149.124 32.1327 148.459 32.3187 148.012 32.6898C147.565 33.0609 147.342 33.5568 147.342 34.1759C147.342 34.795 147.565 35.2901 148.012 35.6621C148.46 36.0332 149.125 36.2183 150.005 36.2183Z" fill="black"/>
<path d="M24.0184 0V2.60031C21.7475 2.60031 19.544 3.04492 17.4698 3.92261C15.7879 4.6338 14.2504 5.60272 12.8865 6.80899L11.0452 4.9677C12.6792 3.50103 14.5524 2.32044 16.585 1.47906C18.9418 0.503058 21.4677 0 24.0184 0Z" fill="black"/>
<path d="M39.4335 34.84C35.4693 38.8034 30.3058 40.9095 25.0671 41.1575V36.2164C26.9678 36.1003 28.8135 35.6681 30.5671 34.9259C32.5705 34.0784 34.3702 32.8659 35.9148 31.3213L39.4335 34.84Z" fill="black"/>
<path d="M12.1223 7.52802C10.5777 9.07262 9.36525 10.8723 8.51767 12.8757C7.77548 14.6293 7.34328 16.475 7.22726 18.3756H2.28613C2.53412 13.1361 4.64023 7.97351 8.60358 4.00928L12.1223 7.52802Z" fill="black"/>
<path d="M24.0187 36.2479V43.4431C17.6508 43.4431 11.538 40.9109 7.03435 36.4082C2.53163 31.9046 -0.000488281 25.7918 -0.000488281 19.4238H7.19554C7.19554 21.6947 7.64014 23.8982 8.51784 25.9724C9.36542 27.9758 10.5779 29.7755 12.1225 31.3201C13.6671 32.8647 15.4668 34.0772 17.4701 34.9247C19.5453 35.8024 21.7479 36.2479 24.0187 36.2479Z" fill="black"/>
<path d="M24.0185 20.8191C24.7889 20.8191 25.4134 20.1946 25.4134 19.4242C25.4134 18.6538 24.7889 18.0293 24.0185 18.0293C23.2481 18.0293 22.6235 18.6538 22.6235 19.4242C22.6235 20.1946 23.2481 20.8191 24.0185 20.8191Z" fill="black"/>
<path d="M24.019 3.65039C15.3067 3.65039 8.24438 10.7127 8.24438 19.425C8.24438 28.1373 15.3067 35.1995 24.019 35.1995C32.7313 35.1995 39.7935 28.1373 39.7935 19.425C39.7935 10.7127 32.7313 3.65039 24.019 3.65039ZM33.6187 29.0247L32.1024 27.5084C30.0335 29.5773 27.1755 30.8571 24.019 30.8571C17.7051 30.8571 12.5868 25.7389 12.5868 19.425C12.5868 13.1111 17.7051 7.99281 24.019 7.99281V5.84861C27.6183 5.84861 31.0742 7.27985 33.6187 9.82525C38.8848 15.0914 38.8848 23.7585 33.6187 29.0247Z" fill="black"/>
<path d="M18.4401 20.8191C19.2105 20.8191 19.835 20.1946 19.835 19.4242C19.835 18.6538 19.2105 18.0293 18.4401 18.0293C17.6697 18.0293 17.0452 18.6538 17.0452 19.4242C17.0452 20.1946 17.6697 20.8191 18.4401 20.8191Z" fill="black"/>
<path d="M29.5968 20.8191C30.3672 20.8191 30.9917 20.1946 30.9917 19.4242C30.9917 18.6538 30.3672 18.0293 29.5968 18.0293C28.8264 18.0293 28.2019 18.6538 28.2019 19.4242C28.2019 20.1946 28.8264 20.8191 29.5968 20.8191Z" fill="black"/>
<path d="M24.0185 26.3982C24.7889 26.3982 25.4134 25.7737 25.4134 25.0033C25.4134 24.2329 24.7889 23.6084 24.0185 23.6084C23.2481 23.6084 22.6235 24.2329 22.6235 25.0033C22.6235 25.7737 23.2481 26.3982 24.0185 26.3982Z" fill="black"/>
<path d="M18.4401 26.3982C19.2105 26.3982 19.835 25.7737 19.835 25.0033C19.835 24.2329 19.2105 23.6084 18.4401 23.6084C17.6697 23.6084 17.0452 24.2329 17.0452 25.0033C17.0452 25.7737 17.6697 26.3982 18.4401 26.3982Z" fill="black"/>
<path d="M29.5968 26.3982C30.3672 26.3982 30.9917 25.7737 30.9917 25.0033C30.9917 24.2329 30.3672 23.6084 29.5968 23.6084C28.8264 23.6084 28.2019 24.2329 28.2019 25.0033C28.2019 25.7737 28.8264 26.3982 29.5968 26.3982Z" fill="black"/>
<path d="M24.0185 15.241C24.7889 15.241 25.4134 14.6165 25.4134 13.8461C25.4134 13.0757 24.7889 12.4512 24.0185 12.4512C23.2481 12.4512 22.6235 13.0757 22.6235 13.8461C22.6235 14.6165 23.2481 15.241 24.0185 15.241Z" fill="black"/>
<path d="M18.4401 15.241C19.2105 15.241 19.835 14.6165 19.835 13.8461C19.835 13.0757 19.2105 12.4512 18.4401 12.4512C17.6697 12.4512 17.0452 13.0757 17.0452 13.8461C17.0452 14.6165 17.6697 15.241 18.4401 15.241Z" fill="black"/>
<path d="M29.5968 15.241C30.3672 15.241 30.9917 14.6165 30.9917 13.8461C30.9917 13.0757 30.3672 12.4512 29.5968 12.4512C28.8264 12.4512 28.2019 13.0757 28.2019 13.8461C28.2019 14.6165 28.8264 15.241 29.5968 15.241Z" fill="black"/>
</svg>
