<svg width="0" height="0" class="hidden">
  <symbol fill="none" xmlns="http://www.w3.org/2000/svg" viewBox="0 0 56 52" id="eco">
    <path d="M53.9995 26L40.9995 48.5167L14.9995 48.5167L1.99951 26L14.9995 3.48334L40.9995 3.48334L53.9995 26Z" stroke="white" stroke-width="3.10448"></path>
    <path d="M40.2234 47.7312L15.9697 3.49243" stroke="white" stroke-width="3.10448"></path>
    <path d="M6.65632 35.7015L33.6265 35.7014" stroke="white" stroke-width="3.10448"></path>
    <path d="M2.38764 25.6124L28.1936 25.6123" stroke="white" stroke-width="3.10448"></path>
    <path d="M8.20838 15.5225L22.3726 15.5225" stroke="white" stroke-width="3.10448"></path>
    <path d="M33.8204 35.7014L47.0144 14.7461" stroke="white" stroke-width="3.10448"></path>
    <path d="M28.3875 25.6117L40.8054 3.88037" stroke="white" stroke-width="3.10448"></path>
    <path d="M22.1786 15.522L29.5518 3.49219" stroke="white" stroke-width="3.10448"></path>
  </symbol>
  <symbol fill="none" xmlns="http://www.w3.org/2000/svg" viewBox="0 0 56 52" id="eco-active">
    <path d="M54 26L41 48.5167L15 48.5167L2 26L15 3.48334L41 3.48334L54 26Z" stroke="#7C94FF" stroke-width="3.10448"></path>
    <path d="M40.2239 47.7312L15.9701 3.49243" stroke="#7C94FF" stroke-width="3.10448"></path>
    <path d="M6.65674 35.7015L33.6269 35.7014" stroke="#7C94FF" stroke-width="3.10448"></path>
    <path d="M2.38806 25.6124L28.194 25.6123" stroke="#7C94FF" stroke-width="3.10448"></path>
    <path d="M8.20893 15.5225L22.3731 15.5225" stroke="#7C94FF" stroke-width="3.10448"></path>
    <path d="M33.821 35.7014L47.015 14.7461" stroke="#7C94FF" stroke-width="3.10448"></path>
    <path d="M28.388 25.6117L40.806 3.88037" stroke="#7C94FF" stroke-width="3.10448"></path>
    <path d="M22.1791 15.522L29.5522 3.49219" stroke="#7C94FF" stroke-width="3.10448"></path>
  </symbol>
  <symbol fill="none" xmlns="http://www.w3.org/2000/svg" viewBox="0 0 56 52" id="social">
    <path d="M54 26L41 48.5167L15 48.5167L2 26L15 3.48334L41 3.48334L54 26Z" stroke="white" stroke-width="3.10448"></path>
    <path d="M39.2584 35.9924L28 29.4924L16.7417 35.9924" stroke="white" stroke-width="3.10448"></path>
    <circle cx="27.6118" cy="18.6269" r="4.65672" stroke="white" stroke-width="3.10448"></circle>
  </symbol>
  <symbol fill="none" xmlns="http://www.w3.org/2000/svg" viewBox="0 0 56 52" id="social-active">
    <path d="M53.9995 26L40.9995 48.5167L14.9995 48.5167L1.99951 26L14.9995 3.48334L40.9995 3.48334L53.9995 26Z" stroke="#7C94FF" stroke-width="3.10448"></path>
    <path d="M39.2579 35.9924L27.9995 29.4924L16.7412 35.9924" stroke="#7C94FF" stroke-width="3.10448"></path>
    <circle cx="27.6115" cy="18.6269" r="4.65672" stroke="#7C94FF" stroke-width="3.10448"></circle>
  </symbol>
  <symbol fill="none" xmlns="http://www.w3.org/2000/svg" viewBox="0 0 56 49" id="tech">
    <path fill-rule="evenodd" clip-rule="evenodd" d="M13.8957 0L41.6881 1.20277e-06L55.5843 24.0689L41.6881 48.1378L13.8957 48.1378L-0.000488281 24.0689L13.8957 0ZM15.6881 3.10448L3.58425 24.0689L15.6881 45.0333H39.8957L51.9995 24.0689L39.8957 3.10448L15.6881 3.10448Z" fill="white"></path>
    <path fill-rule="evenodd" clip-rule="evenodd" d="M43.7023 24.069L39.6647 31.0624L36.9761 29.5101L40.1176 24.069L33.8347 13.1866H30.6562V10.0822L35.627 10.0822L43.7023 24.069ZM21.2688 34.9513H23.6711V38.0558H19.4764L11.4012 24.069L15.4388 17.0756L18.1274 18.6278L14.9859 24.069L21.2688 34.9513Z" fill="white"></path>
    <path fill-rule="evenodd" clip-rule="evenodd" d="M28.3279 34.5466C27.2563 34.5466 26.3876 35.4153 26.3876 36.4869C26.3876 37.5585 27.2563 38.4272 28.3279 38.4272C29.3995 38.4272 30.2682 37.5585 30.2682 36.4869C30.2682 35.4153 29.3995 34.5466 28.3279 34.5466ZM23.2831 36.4869C23.2831 33.7007 25.5417 31.4421 28.3279 31.4421C31.114 31.4421 33.3726 33.7007 33.3726 36.4869C33.3726 39.273 31.114 41.5317 28.3279 41.5317C25.5417 41.5317 23.2831 39.273 23.2831 36.4869Z" fill="white"></path>
    <path fill-rule="evenodd" clip-rule="evenodd" d="M26.7756 9.71078C25.704 9.71078 24.8353 10.5795 24.8353 11.6511C24.8353 12.7227 25.704 13.5914 26.7756 13.5914C27.8472 13.5914 28.7159 12.7227 28.7159 11.6511C28.7159 10.5795 27.8472 9.71078 26.7756 9.71078ZM21.7309 11.6511C21.7309 8.86492 23.9895 6.6063 26.7756 6.6063C29.5618 6.6063 31.8204 8.86492 31.8204 11.6511C31.8204 14.4372 29.5618 16.6959 26.7756 16.6959C23.9895 16.6959 21.7309 14.4372 21.7309 11.6511Z" fill="white"></path>
  </symbol>
  <symbol fill="none" xmlns="http://www.w3.org/2000/svg" viewBox="0 0 56 49" id="tech-active">
    <path fill-rule="evenodd" clip-rule="evenodd" d="M13.8962 0L41.6886 1.20277e-06L55.5847 24.0689L41.6886 48.1378L13.8962 48.1378L0 24.0689L13.8962 0ZM15.6886 3.10448L3.58474 24.0689L15.6886 45.0333L39.8962 45.0333L52 24.0689L39.8962 3.10448L15.6886 3.10448Z" fill="#7C94FF"></path>
    <path fill-rule="evenodd" clip-rule="evenodd" d="M43.7028 24.069L39.6652 31.0624L36.9766 29.5101L40.1181 24.069L33.8351 13.1866H30.6567V10.0822L35.6275 10.0822L43.7028 24.069ZM21.2693 34.9513H23.6716V38.0558H19.4769L11.4016 24.069L15.4393 17.0756L18.1278 18.6278L14.9864 24.069L21.2693 34.9513Z" fill="#7C94FF"></path>
    <path fill-rule="evenodd" clip-rule="evenodd" d="M28.3284 34.5466C27.2568 34.5466 26.3881 35.4153 26.3881 36.4869C26.3881 37.5585 27.2568 38.4272 28.3284 38.4272C29.4 38.4272 30.2687 37.5585 30.2687 36.4869C30.2687 35.4153 29.4 34.5466 28.3284 34.5466ZM23.2836 36.4869C23.2836 33.7007 25.5422 31.4421 28.3284 31.4421C31.1145 31.4421 33.3731 33.7007 33.3731 36.4869C33.3731 39.273 31.1145 41.5317 28.3284 41.5317C25.5422 41.5317 23.2836 39.273 23.2836 36.4869Z" fill="#7C94FF"></path>
    <path fill-rule="evenodd" clip-rule="evenodd" d="M26.7761 9.71078C25.7045 9.71078 24.8358 10.5795 24.8358 11.6511C24.8358 12.7227 25.7045 13.5914 26.7761 13.5914C27.8477 13.5914 28.7164 12.7227 28.7164 11.6511C28.7164 10.5795 27.8477 9.71078 26.7761 9.71078ZM21.7313 11.6511C21.7313 8.86492 23.99 6.6063 26.7761 6.6063C29.5623 6.6063 31.8209 8.86492 31.8209 11.6511C31.8209 14.4372 29.5623 16.6959 26.7761 16.6959C23.99 16.6959 21.7313 14.4372 21.7313 11.6511Z" fill="#7C94FF"></path>
  </symbol>
</svg>