<svg width="56" height="49" viewBox="0 0 56 49" fill="none" xmlns="http://www.w3.org/2000/svg">
<path fill-rule="evenodd" clip-rule="evenodd" d="M13.8962 0L41.6886 1.20277e-06L55.5847 24.0689L41.6886 48.1378L13.8962 48.1378L0 24.0689L13.8962 0ZM15.6886 3.10448L3.58474 24.0689L15.6886 45.0333L39.8962 45.0333L52 24.0689L39.8962 3.10448L15.6886 3.10448Z" fill="#7C94FF"/>
<path fill-rule="evenodd" clip-rule="evenodd" d="M43.7028 24.069L39.6652 31.0624L36.9766 29.5101L40.1181 24.069L33.8351 13.1866H30.6567V10.0822L35.6275 10.0822L43.7028 24.069ZM21.2693 34.9513H23.6716V38.0558H19.4769L11.4016 24.069L15.4393 17.0756L18.1278 18.6278L14.9864 24.069L21.2693 34.9513Z" fill="#7C94FF"/>
<path fill-rule="evenodd" clip-rule="evenodd" d="M28.3284 34.5466C27.2568 34.5466 26.3881 35.4153 26.3881 36.4869C26.3881 37.5585 27.2568 38.4272 28.3284 38.4272C29.4 38.4272 30.2687 37.5585 30.2687 36.4869C30.2687 35.4153 29.4 34.5466 28.3284 34.5466ZM23.2836 36.4869C23.2836 33.7007 25.5422 31.4421 28.3284 31.4421C31.1145 31.4421 33.3731 33.7007 33.3731 36.4869C33.3731 39.273 31.1145 41.5317 28.3284 41.5317C25.5422 41.5317 23.2836 39.273 23.2836 36.4869Z" fill="#7C94FF"/>
<path fill-rule="evenodd" clip-rule="evenodd" d="M26.7761 9.71078C25.7045 9.71078 24.8358 10.5795 24.8358 11.6511C24.8358 12.7227 25.7045 13.5914 26.7761 13.5914C27.8477 13.5914 28.7164 12.7227 28.7164 11.6511C28.7164 10.5795 27.8477 9.71078 26.7761 9.71078ZM21.7313 11.6511C21.7313 8.86492 23.99 6.6063 26.7761 6.6063C29.5623 6.6063 31.8209 8.86492 31.8209 11.6511C31.8209 14.4372 29.5623 16.6959 26.7761 16.6959C23.99 16.6959 21.7313 14.4372 21.7313 11.6511Z" fill="#7C94FF"/>
</svg>
