<svg width="56" height="49" viewBox="0 0 56 49" fill="none" xmlns="http://www.w3.org/2000/svg">
<path fill-rule="evenodd" clip-rule="evenodd" d="M13.8957 0L41.6881 1.20277e-06L55.5843 24.0689L41.6881 48.1378L13.8957 48.1378L-0.000488281 24.0689L13.8957 0ZM15.6881 3.10448L3.58425 24.0689L15.6881 45.0333H39.8957L51.9995 24.0689L39.8957 3.10448L15.6881 3.10448Z" fill="white"/>
<path fill-rule="evenodd" clip-rule="evenodd" d="M43.7023 24.069L39.6647 31.0624L36.9761 29.5101L40.1176 24.069L33.8347 13.1866H30.6562V10.0822L35.627 10.0822L43.7023 24.069ZM21.2688 34.9513H23.6711V38.0558H19.4764L11.4012 24.069L15.4388 17.0756L18.1274 18.6278L14.9859 24.069L21.2688 34.9513Z" fill="white"/>
<path fill-rule="evenodd" clip-rule="evenodd" d="M28.3279 34.5466C27.2563 34.5466 26.3876 35.4153 26.3876 36.4869C26.3876 37.5585 27.2563 38.4272 28.3279 38.4272C29.3995 38.4272 30.2682 37.5585 30.2682 36.4869C30.2682 35.4153 29.3995 34.5466 28.3279 34.5466ZM23.2831 36.4869C23.2831 33.7007 25.5417 31.4421 28.3279 31.4421C31.114 31.4421 33.3726 33.7007 33.3726 36.4869C33.3726 39.273 31.114 41.5317 28.3279 41.5317C25.5417 41.5317 23.2831 39.273 23.2831 36.4869Z" fill="white"/>
<path fill-rule="evenodd" clip-rule="evenodd" d="M26.7756 9.71078C25.704 9.71078 24.8353 10.5795 24.8353 11.6511C24.8353 12.7227 25.704 13.5914 26.7756 13.5914C27.8472 13.5914 28.7159 12.7227 28.7159 11.6511C28.7159 10.5795 27.8472 9.71078 26.7756 9.71078ZM21.7309 11.6511C21.7309 8.86492 23.9895 6.6063 26.7756 6.6063C29.5618 6.6063 31.8204 8.86492 31.8204 11.6511C31.8204 14.4372 29.5618 16.6959 26.7756 16.6959C23.9895 16.6959 21.7309 14.4372 21.7309 11.6511Z" fill="white"/>
</svg>
