<svg width="147" height="42" viewBox="0 0 147 42" fill="none" xmlns="http://www.w3.org/2000/svg">
<path d="M50.5769 14.4279H52.146V18.5082H50.8513V15.6839H43.1226V5.87585H44.4173V14.4279H49.2821V5.87585H50.5769V14.4279Z" fill="white"/>
<path d="M60.6593 5.87585H61.7579V15.683H60.4631V8.22958L55.206 15.683H54.1074V5.87585H55.4021V13.3293L60.6593 5.87585Z" fill="white"/>
<path d="M74.0763 7.28844C75.0174 8.24306 75.4888 9.4073 75.4888 10.7803C75.4888 12.1533 75.0183 13.3175 74.0763 14.2722C73.1351 15.2268 71.8926 15.7698 70.3495 15.9002V19.6076H69.0548V15.9002C67.5118 15.7698 66.2692 15.2268 65.3281 14.2722C64.3869 13.3175 63.9155 12.1533 63.9155 10.7803C63.9155 9.4073 64.3861 8.24391 65.3281 7.28844C66.2692 6.33382 67.5118 5.79085 69.0548 5.66037V1.953H70.3495V5.66037C71.8917 5.79085 73.1343 6.33382 74.0763 7.28844ZM66.2499 8.18077C65.5562 8.89379 65.2102 9.76002 65.2102 10.7795C65.2102 11.7997 65.5562 12.666 66.2499 13.3782C66.9427 14.0912 67.878 14.5062 69.0548 14.624V6.93488C67.878 7.05273 66.9427 7.46775 66.2499 8.18077ZM70.3495 14.624C71.5264 14.5062 72.4608 14.0912 73.1545 13.3782C73.8473 12.666 74.1941 11.7989 74.1941 10.7795C74.1941 9.75918 73.8473 8.89295 73.1545 8.18077C72.4608 7.46859 71.5264 7.05273 70.3495 6.93488V14.624Z" fill="white"/>
<path d="M82.9027 5.64014C84.3018 5.64014 85.4946 6.13765 86.4821 7.131C87.4695 8.12518 87.9628 9.34077 87.9628 10.7794C87.9628 12.2181 87.4687 13.4345 86.4821 14.4279C85.4946 15.4221 84.3018 15.9187 82.9027 15.9187C81.1635 15.9187 79.8427 15.1998 78.9402 13.7612V19.6067H77.6455V5.87585H78.9402V7.79771C79.8427 6.35989 81.1635 5.64014 82.9027 5.64014ZM80.059 13.5355C80.804 14.2873 81.7199 14.6636 82.805 14.6636C83.8901 14.6636 84.806 14.2881 85.551 13.5355C86.296 12.7838 86.669 11.8654 86.669 10.7794C86.669 9.69433 86.296 8.77591 85.551 8.02332C84.806 7.27158 83.8901 6.89529 82.805 6.89529C81.7191 6.89529 80.804 7.27158 80.059 8.02332C79.314 8.77506 78.9411 9.69433 78.9411 10.7794C78.9402 11.8654 79.3132 12.7838 80.059 13.5355Z" fill="white"/>
<path d="M98.349 14.438C97.349 15.4254 96.1292 15.9187 94.6905 15.9187C93.2518 15.9187 92.0329 15.4254 91.032 14.438C90.0319 13.4505 89.531 12.2316 89.531 10.7794C89.531 9.32814 90.031 8.10835 91.032 7.12089C92.032 6.13344 93.2518 5.64014 94.6905 5.64014C96.1292 5.64014 97.3481 6.13428 98.349 7.12089C99.3491 8.10835 99.85 9.3273 99.85 10.7794C99.85 12.2316 99.35 13.4505 98.349 14.438ZM91.9453 13.5355C92.6903 14.2873 93.6062 14.6636 94.6913 14.6636C95.7764 14.6636 96.6923 14.2881 97.4373 13.5355C98.1824 12.7838 98.5553 11.8654 98.5553 10.7794C98.5553 9.69433 98.1824 8.77591 97.4373 8.02332C96.6923 7.27158 95.7764 6.89529 94.6913 6.89529C93.6054 6.89529 92.6903 7.27158 91.9453 8.02332C91.2003 8.77507 90.8274 9.69433 90.8274 10.7794C90.8266 11.8654 91.1995 12.7838 91.9453 13.5355Z" fill="white"/>
<path d="M108.775 9.76C109.886 10.2962 110.443 11.2054 110.443 12.4866C110.443 13.4025 110.139 14.1635 109.531 14.7722C108.923 15.38 108.05 15.6839 106.912 15.6839H102.009V10.5446V7.09228V5.87585H105.931C106.886 5.87585 107.648 6.13429 108.217 6.65033C108.786 7.1672 109.071 7.81709 109.071 8.60166C109.069 9.02088 108.971 9.40644 108.775 9.76ZM103.302 7.09228V9.36771H106.911C107.055 9.36771 107.257 9.38118 107.519 9.40728C107.689 9.14547 107.774 8.87778 107.774 8.60334C107.774 8.0932 107.597 7.70765 107.245 7.44584C106.892 7.18404 106.453 7.06703 105.931 7.09312H103.302V7.09228ZM106.911 14.4674C107.618 14.4674 108.166 14.2907 108.559 13.9379C108.951 13.5852 109.147 13.1012 109.147 12.4866C109.147 11.8721 108.951 11.3948 108.559 11.0547C108.166 10.7146 107.618 10.5446 106.911 10.5446H103.302V14.4674H106.911Z" fill="white"/>
<path d="M115.836 5.64014C116.947 5.64014 117.846 5.97013 118.533 6.63096C119.22 7.29178 119.563 8.18411 119.563 9.30878V15.6839H118.268V14.5853C117.64 15.4751 116.627 15.9196 115.228 15.9196C114.259 15.9196 113.433 15.6451 112.746 15.0954C112.059 14.5466 111.716 13.7687 111.716 12.7611C111.716 11.7543 112.06 10.9764 112.746 10.4267C113.433 9.87785 114.259 9.60257 115.228 9.60257C116.587 9.60257 117.601 10.0277 118.268 10.8779V9.30878C118.268 8.48464 118.036 7.87685 117.572 7.48456C117.107 7.09227 116.529 6.89613 115.836 6.89613C115.156 6.89613 114.581 7.06954 114.11 7.41553C113.64 7.76236 113.404 8.2624 113.404 8.91649H112.109C112.109 7.97534 112.455 7.19413 113.149 6.57287C113.842 5.95161 114.738 5.64014 115.836 5.64014ZM115.542 14.7023C116.326 14.7023 116.977 14.5196 117.493 14.1534C118.009 13.7872 118.267 13.3234 118.267 12.7611C118.267 12.1726 118.012 11.7021 117.502 11.3485C116.992 10.9949 116.338 10.819 115.541 10.819C114.704 10.819 114.073 10.9958 113.647 11.3485C113.222 11.7012 113.01 12.1726 113.01 12.7611C113.01 13.3495 113.222 13.8201 113.647 14.1736C114.073 14.5264 114.705 14.7023 115.542 14.7023Z" fill="white"/>
<path d="M129.135 5.87584V15.683H127.84V11.9167H126.075L122.741 15.683H121.093L124.526 11.8578C123.754 11.7399 123.12 11.4133 122.624 10.8771C122.126 10.3408 121.879 9.68759 121.879 8.91564C121.879 8.02669 122.195 7.29767 122.83 6.7286C123.464 6.15953 124.239 5.875 125.154 5.875H129.135V5.87584ZM125.153 10.7011H127.84V7.13099H125.153C124.604 7.13099 124.136 7.2943 123.75 7.62177C123.364 7.9484 123.172 8.38025 123.172 8.91649C123.172 9.45272 123.364 9.88458 123.75 10.2112C124.136 10.5378 124.604 10.7011 125.153 10.7011Z" fill="white"/>
<path d="M47.9149 25.3632C49.3662 25.3632 50.5658 25.8539 51.5145 26.8347C52.4624 27.8154 52.9363 29.0385 52.9363 30.5025C52.9363 31.9672 52.4624 33.1895 51.5145 34.1703C50.5666 35.151 49.367 35.6418 47.9149 35.6418C46.7641 35.6418 45.7472 35.3311 44.865 34.7099C43.9819 34.0886 43.4036 33.2754 43.1292 32.2677H44.5022C44.7505 32.8957 45.1857 33.4059 45.807 33.7982C46.4282 34.1905 47.1311 34.3866 47.9157 34.3866C48.8703 34.3866 49.6877 34.0793 50.3679 33.4648C51.0481 32.8503 51.4598 32.0724 51.6037 31.1304H46.7195V29.8753H51.6029C51.4589 28.9333 51.0473 28.1555 50.3671 27.5409C49.6869 26.9264 48.8695 26.6191 47.9149 26.6191C47.1303 26.6191 46.4308 26.8119 45.8162 27.1975C45.2017 27.583 44.7631 28.0965 44.5022 28.7372H43.1292C43.4171 27.7303 43.9987 26.9163 44.8751 26.295C45.7506 25.6746 46.7641 25.3632 47.9149 25.3632Z" fill="white"/>
<path d="M63.0188 35.4061H61.293L56.3894 30.6792V35.4061H55.0947V25.5989H56.3894V29.9536L61.0969 25.5989H62.8226L57.7229 30.3063L63.0188 35.4061Z" fill="white"/>
<path d="M72.0322 34.161C71.0321 35.1484 69.8123 35.6418 68.3736 35.6418C66.9349 35.6418 65.716 35.1484 64.7151 34.161C63.715 33.1735 63.2141 31.9546 63.2141 30.5025C63.2141 29.0503 63.7142 27.8322 64.7151 26.8439C65.7152 25.8565 66.9349 25.3632 68.3736 25.3632C69.8123 25.3632 71.0312 25.8573 72.0322 26.8439C73.0322 27.8314 73.5331 29.0503 73.5331 30.5025C73.5331 31.9546 73.0322 33.1735 72.0322 34.161ZM65.6276 33.2586C66.3726 34.0103 67.2885 34.3866 68.3736 34.3866C69.4587 34.3866 70.3746 34.0111 71.1196 33.2586C71.8646 32.5068 72.2376 31.5884 72.2376 30.5025C72.2376 29.4174 71.8646 28.4989 71.1196 27.7463C70.3746 26.9946 69.4587 26.6183 68.3736 26.6183C67.2877 26.6183 66.3726 26.9946 65.6276 27.7463C64.8826 28.4989 64.5097 29.4174 64.5097 30.5025C64.5097 31.5884 64.8818 32.5068 65.6276 33.2586Z" fill="white"/>
<path d="M84.9675 32.2677C84.6931 33.2746 84.1207 34.0886 83.2511 34.7099C82.3815 35.3311 81.3839 35.6418 80.2601 35.6418C78.7819 35.6418 77.5528 35.1484 76.5721 34.161C75.5914 33.1735 75.1006 31.9546 75.1006 30.5025C75.1006 29.0503 75.5914 27.8322 76.5721 26.8439C77.5528 25.8565 78.7819 25.3632 80.2601 25.3632C81.3848 25.3632 82.3789 25.6738 83.2418 26.295C84.1047 26.9163 84.6805 27.7303 84.9675 28.7372H83.5945C83.3327 28.0965 82.9009 27.583 82.2998 27.1975C81.6979 26.8119 81.0177 26.6191 80.2601 26.6191C79.1741 26.6191 78.2591 26.9954 77.5141 27.7472C76.7691 28.4998 76.3961 29.4182 76.3961 30.5033C76.3961 31.5892 76.7691 32.5077 77.5141 33.2594C78.2591 34.0112 79.175 34.3874 80.2601 34.3874C81.0312 34.3874 81.7181 34.1913 82.32 33.799C82.9211 33.4067 83.3462 32.8966 83.5954 32.2686H84.9675V32.2677Z" fill="white"/>
<path d="M93.4808 25.5989H94.5794V35.4061H93.2847V27.9526L88.0275 35.4061H86.929V25.5989H88.2237V33.0523L93.4808 25.5989Z" fill="white"/>
<path d="M106.603 32.2677C106.329 33.2746 105.756 34.0886 104.887 34.7099C104.017 35.3311 103.019 35.6418 101.896 35.6418C100.417 35.6418 99.1883 35.1484 98.2076 34.161C97.2269 33.1735 96.7361 31.9546 96.7361 30.5025C96.7361 29.0503 97.2269 27.8322 98.2076 26.8439C99.1883 25.8565 100.417 25.3632 101.896 25.3632C103.02 25.3632 104.014 25.6738 104.877 26.295C105.74 26.9163 106.316 27.7303 106.603 28.7372H105.23C104.968 28.0965 104.536 27.583 103.935 27.1975C103.333 26.8119 102.653 26.6191 101.896 26.6191C100.81 26.6191 99.8946 26.9954 99.1496 27.7472C98.4046 28.4998 98.0316 29.4182 98.0316 30.5033C98.0316 31.5892 98.4046 32.5077 99.1496 33.2594C99.8946 34.0112 100.81 34.3874 101.896 34.3874C102.667 34.3874 103.354 34.1913 103.956 33.799C104.557 33.4067 104.982 32.8966 105.231 32.2686H106.603V32.2677Z" fill="white"/>
<path d="M114.645 25.5989V26.854H111.565V35.4061H110.271V26.854H107.191V25.5989H111.565H114.645Z" fill="white"/>
<path d="M120.256 25.3632C121.694 25.3632 122.848 25.8733 123.718 26.8936C124.588 27.9139 125.023 29.1294 125.023 30.542C125.023 30.686 125.009 30.8888 124.983 31.1498H123.689H116.568C116.699 32.144 117.101 32.9319 117.775 33.5136C118.448 34.0953 119.282 34.3866 120.276 34.3866C120.982 34.3866 121.597 34.2334 122.119 33.9253C122.642 33.618 123.015 33.2165 123.237 32.719H124.669C124.395 33.5818 123.859 34.2847 123.061 34.8277C122.262 35.3707 121.328 35.6418 120.256 35.6418C118.765 35.6418 117.555 35.1577 116.627 34.1905C115.698 33.2232 115.234 31.9933 115.234 30.5025C115.234 29.0385 115.698 27.8154 116.627 26.8347C117.555 25.8539 118.765 25.3632 120.256 25.3632ZM120.256 26.6191C119.235 26.6191 118.395 26.9197 117.735 27.5216C117.074 28.1235 116.685 28.9139 116.568 29.8955H123.689C123.571 28.8626 123.191 28.0587 122.551 27.4829C121.91 26.9071 121.145 26.6191 120.256 26.6191Z" fill="white"/>
<path d="M136.595 25.5989V35.4061H135.3V27.7565L132.299 33.4253H131.278L128.277 27.7565V35.4061H126.983V25.5989H128.277H128.474L131.789 31.8948L135.104 25.5989H136.595Z" fill="white"/>
<path d="M142.871 25.3632C143.982 25.3632 144.881 25.694 145.568 26.354C146.255 27.0148 146.598 27.9071 146.598 29.0318V35.4069H145.303V34.3083C144.675 35.1981 143.662 35.6426 142.262 35.6426C141.294 35.6426 140.468 35.3682 139.781 34.8185C139.094 34.2696 138.751 33.4917 138.751 32.4841C138.751 31.4773 139.095 30.6994 139.781 30.1497C140.468 29.6 141.294 29.3256 142.262 29.3256C143.622 29.3256 144.636 29.7507 145.303 30.6009V29.0318C145.303 28.2077 145.071 27.5999 144.607 27.2076C144.142 26.8153 143.564 26.6191 142.871 26.6191C142.191 26.6191 141.616 26.7926 141.145 27.1386C140.675 27.4854 140.439 27.9854 140.439 28.6395H139.144C139.144 27.6975 139.49 26.9172 140.184 26.295C140.877 25.6746 141.773 25.3632 142.871 25.3632ZM142.576 34.4253C143.361 34.4253 144.012 34.2427 144.528 33.8765C145.044 33.5103 145.302 33.0464 145.302 32.4841C145.302 31.8957 145.047 31.4251 144.537 31.0715C144.027 30.718 143.373 30.542 142.576 30.542C141.739 30.542 141.107 30.7188 140.682 31.0715C140.257 31.4242 140.045 31.8957 140.045 32.4841C140.045 33.0725 140.257 33.5431 140.682 33.8967C141.108 34.2494 141.74 34.4253 142.576 34.4253Z" fill="white"/>
<path d="M22.8297 0V2.47158C20.6713 2.47158 18.5769 2.89417 16.6053 3.72841C15.0067 4.40439 13.5453 5.32534 12.2489 6.47189L10.4988 4.72175C12.0519 3.3277 13.8324 2.20556 15.7643 1.40584C18.0044 0.478152 20.4053 0 22.8297 0Z" fill="white"/>
<path d="M37.4823 33.1154C33.7143 36.8825 28.8065 38.8844 23.8271 39.1201V34.4236C25.6337 34.3133 27.388 33.9025 29.0548 33.1971C30.959 32.3915 32.6696 31.239 34.1377 29.7709L37.4823 33.1154Z" fill="white"/>
<path d="M11.5223 7.15545C10.0542 8.62358 8.90174 10.3342 8.09612 12.2383C7.39068 13.9051 6.97987 15.6595 6.8696 17.466H2.1731C2.4088 12.4858 4.41065 7.57889 8.17778 3.81091L11.5223 7.15545Z" fill="white"/>
<path d="M22.8296 34.4539V41.2929C16.7769 41.2929 10.9667 38.8861 6.68607 34.6063C2.40627 30.3257 -0.000488281 24.5154 -0.000488281 18.4628H6.83928C6.83928 20.6212 7.26187 22.7156 8.09611 24.6872C8.90173 26.5914 10.0542 28.3019 11.5223 29.7701C12.9904 31.2382 14.701 32.3906 16.6052 33.1963C18.5776 34.0305 20.6712 34.4539 22.8296 34.4539Z" fill="white"/>
<path d="M22.8295 19.7886C23.5618 19.7886 24.1554 19.195 24.1554 18.4627C24.1554 17.7304 23.5618 17.1368 22.8295 17.1368C22.0973 17.1368 21.5037 17.7304 21.5037 18.4627C21.5037 19.195 22.0973 19.7886 22.8295 19.7886Z" fill="white"/>
<path d="M22.8295 3.46912C14.5486 3.46912 7.83594 10.1818 7.83594 18.4627C7.83594 26.7437 14.5486 33.4563 22.8295 33.4563C31.1105 33.4563 37.8232 26.7437 37.8232 18.4627C37.8232 10.1818 31.1105 3.46912 22.8295 3.46912ZM31.954 27.5872L30.5128 26.146C28.5463 28.1125 25.8298 29.3289 22.8295 29.3289C16.8282 29.3289 11.9634 24.464 11.9634 18.4627C11.9634 12.4614 16.8282 7.59655 22.8295 7.59655V5.55851C26.2507 5.55851 29.5355 6.91888 31.954 9.33827C36.9595 14.3437 36.9595 22.5817 31.954 27.5872Z" fill="white"/>
<path d="M17.527 19.7886C18.2593 19.7886 18.8529 19.195 18.8529 18.4627C18.8529 17.7304 18.2593 17.1368 17.527 17.1368C16.7948 17.1368 16.2012 17.7304 16.2012 18.4627C16.2012 19.195 16.7948 19.7886 17.527 19.7886Z" fill="white"/>
<path d="M28.1323 19.7886C28.8645 19.7886 29.4581 19.195 29.4581 18.4627C29.4581 17.7304 28.8645 17.1368 28.1323 17.1368C27.4 17.1368 26.8064 17.7304 26.8064 18.4627C26.8064 19.195 27.4 19.7886 28.1323 19.7886Z" fill="white"/>
<path d="M22.8295 25.0912C23.5618 25.0912 24.1554 24.4976 24.1554 23.7653C24.1554 23.0331 23.5618 22.4395 22.8295 22.4395C22.0973 22.4395 21.5037 23.0331 21.5037 23.7653C21.5037 24.4976 22.0973 25.0912 22.8295 25.0912Z" fill="white"/>
<path d="M17.527 25.0912C18.2593 25.0912 18.8529 24.4976 18.8529 23.7653C18.8529 23.0331 18.2593 22.4395 17.527 22.4395C16.7948 22.4395 16.2012 23.0331 16.2012 23.7653C16.2012 24.4976 16.7948 25.0912 17.527 25.0912Z" fill="white"/>
<path d="M28.1323 25.0912C28.8645 25.0912 29.4581 24.4976 29.4581 23.7653C29.4581 23.0331 28.8645 22.4395 28.1323 22.4395C27.4 22.4395 26.8064 23.0331 26.8064 23.7653C26.8064 24.4976 27.4 25.0912 28.1323 25.0912Z" fill="white"/>
<path d="M22.8295 14.486C23.5618 14.486 24.1554 13.8923 24.1554 13.1601C24.1554 12.4278 23.5618 11.8342 22.8295 11.8342C22.0973 11.8342 21.5037 12.4278 21.5037 13.1601C21.5037 13.8923 22.0973 14.486 22.8295 14.486Z" fill="white"/>
<path d="M17.527 14.486C18.2593 14.486 18.8529 13.8923 18.8529 13.1601C18.8529 12.4278 18.2593 11.8342 17.527 11.8342C16.7948 11.8342 16.2012 12.4278 16.2012 13.1601C16.2012 13.8923 16.7948 14.486 17.527 14.486Z" fill="white"/>
<path d="M28.1323 14.486C28.8645 14.486 29.4581 13.8923 29.4581 13.1601C29.4581 12.4278 28.8645 11.8342 28.1323 11.8342C27.4 11.8342 26.8064 12.4278 26.8064 13.1601C26.8064 13.8923 27.4 14.486 28.1323 14.486Z" fill="white"/>
</svg>
