<svg width="76" height="71" viewBox="0 0 76 71" fill="none" xmlns="http://www.w3.org/2000/svg">
<path d="M75.9995 34.8778C75.9995 38.9189 74.1292 42.6105 70.9912 44.9857C71.7052 46.4235 72.0852 48.0169 72.0852 49.6413C72.0852 55.4253 67.3679 60.1298 61.5699 60.1298C61.0044 60.1298 60.4388 60.0839 59.8822 59.9935C58.8891 65.6842 53.9016 70.0244 47.9166 70.0244C43.8257 70.0244 40.1994 67.9957 37.9995 64.8935C35.7997 67.9957 32.1733 70.0244 28.0824 70.0244C22.0974 70.0244 17.1099 65.6842 16.1169 59.9935C15.5602 60.0839 14.9947 60.1298 14.4291 60.1298C8.63115 60.1298 3.91381 55.4253 3.91381 49.6413C3.91381 48.0169 4.29381 46.4235 5.00779 44.9857C1.86982 42.6105 -0.000488281 38.9189 -0.000488281 34.8778C-0.000488281 30.6546 2.13553 26.7157 5.57334 24.3716C5.31506 23.3573 5.18443 22.3133 5.18443 21.2501C5.18443 14.7346 10.1229 9.35044 16.4612 8.62337C17.9887 3.61088 22.6926 0.0244141 28.0824 0.0244141C32.1733 0.0244141 35.7997 2.05309 37.9995 5.15535C40.1994 2.05309 43.8257 0.0244141 47.9166 0.0244141C53.3064 0.0244141 58.0104 3.61088 59.5378 8.62337C65.8761 9.35044 70.8146 14.7346 70.8146 21.2501C70.8146 22.3133 70.684 23.3573 70.4257 24.3716C73.8635 26.7157 75.9995 30.6546 75.9995 34.8778ZM35.7729 12.1402C35.7729 7.90962 32.3233 4.46679 28.0824 4.46679C24.2631 4.46679 20.9901 7.30695 20.4661 11.0741L20.1915 13.0509L18.1059 12.9858C18.0465 12.9843 17.9857 12.9813 17.9263 12.9813C13.3559 12.9813 9.63756 16.6907 9.63756 21.2501C9.63756 22.3814 9.86318 23.4772 10.3085 24.5093L11.1576 26.4802L9.21154 27.3954C6.32147 28.7562 4.45264 31.6926 4.45264 34.8778C4.45264 38.0541 6.22943 40.8987 9.09131 42.301L11.6548 43.5582L9.80678 45.732C8.87904 46.8234 8.36693 48.2109 8.36693 49.6413C8.36693 52.9746 11.0863 55.6874 14.4291 55.6874C15.3999 55.6874 16.3291 55.4638 17.1901 55.0225L20.7926 53.1789L20.4245 57.2008C20.4022 57.454 20.3904 57.685 20.3904 57.9086C20.3904 62.1392 23.8415 65.582 28.0824 65.582C32.3233 65.582 35.7729 62.1392 35.7729 57.9086V51.8788H21.1044V45.7538H17.443V41.3114H21.1044V37.2456H17.443V32.8032H21.1044V28.7374H17.443V24.295H21.1044V18.17H35.7729V12.1402ZM25.5575 22.6124V47.4364H50.4415V22.6124H25.5575ZM66.7875 27.3954L64.8415 26.4802L65.6905 24.5093C66.1358 23.4772 66.3615 22.3814 66.3615 21.2501C66.3615 16.6907 62.6431 12.9813 58.0727 12.9813C58.0133 12.9813 57.9525 12.9843 57.8931 12.9858L55.8076 13.0509L55.533 11.0741C55.009 7.30695 51.7359 4.46679 47.9166 4.46679C43.6758 4.46679 40.2261 7.90962 40.2261 12.1402V18.17H54.8947V24.295H58.556V28.7374H54.8947V32.8032H58.556V37.2456H54.8947V41.3114H58.556V45.7538H54.8947V51.8788H40.2261V57.9086C40.2261 62.1392 43.6758 65.582 47.9166 65.582C52.1575 65.582 55.6087 62.1392 55.6087 57.9086C55.6087 57.685 55.5968 57.454 55.5745 57.2008L55.2064 53.1789L58.809 55.0225C59.6699 55.4638 60.5991 55.6874 61.5699 55.6874C64.9127 55.6874 67.6321 52.9746 67.6321 49.6413C67.6321 48.2109 67.12 46.8234 66.1922 45.732L64.3442 43.5582L66.9077 42.301C69.7696 40.8987 71.5464 38.0541 71.5464 34.8778C71.5464 31.6926 69.6776 28.7562 66.7875 27.3954Z" fill="#7C94FF"/>
<path d="M29.5876 43.416V26.6327H46.4115V43.416H29.5876ZM41.9583 31.0751H34.0407V38.9736H41.9583V31.0751Z" fill="#7C94FF"/>
</svg>
