<svg width="46" height="70" viewBox="0 0 46 70" fill="none" xmlns="http://www.w3.org/2000/svg">
<path d="M6.27224 0H39.7268C43.1856 0 45.9995 2.75994 45.9995 6.15234V63.8477C45.9995 67.2401 43.1856 70 39.7268 70H6.27224C2.81346 70 -0.000488281 67.2401 -0.000488281 63.8477V6.15234C-0.000488281 2.75994 2.81346 0 6.27224 0ZM4.18133 63.8477C4.18133 64.9785 5.11931 65.8984 6.27224 65.8984H39.7268C40.8797 65.8984 41.8177 64.9785 41.8177 63.8477V53.6184H4.18133V63.8477ZM41.8177 49.5168V6.15234C41.8177 5.02154 40.8797 4.10156 39.7268 4.10156H6.27224C5.11931 4.10156 4.18133 5.02154 4.18133 6.15234V49.5168H41.8177Z" fill="#7C94FF"/>
<path d="M25.0904 57.7113H20.9086V61.8129H25.0904V57.7113Z" fill="#7C94FF"/>
<path d="M14.4975 21.3705L11.4672 18.3984L14.4241 15.4982L17.4544 18.4703C18.4908 17.805 19.6571 17.3194 20.9086 17.0615V12.8639H25.0904V17.0615C26.3418 17.3195 27.5081 17.805 28.5446 18.4703L31.5749 15.4982L34.5318 18.3984L31.5016 21.3705C32.1799 22.387 32.675 23.5309 32.9379 24.7583H37.2177V28.8598H32.9379C32.6748 30.0871 32.1799 31.2311 31.5016 32.2476L34.5318 35.2197L31.5749 38.1199L28.5446 35.1478C27.5082 35.8131 26.3419 36.2987 25.0904 36.5565V40.7542H20.9086V36.5565C19.6571 36.2986 18.491 35.8129 17.4544 35.1478L14.4241 38.1199L11.4672 35.2197L14.4975 32.2476C13.8192 31.2311 13.324 30.0871 13.061 28.8597H8.78133V24.7581H13.0611C13.3242 23.5309 13.8192 22.387 14.4975 21.3705ZM22.9995 32.6685C26.2935 32.6685 28.9735 30.04 28.9735 26.8092C28.9735 23.5784 26.2935 20.9498 22.9995 20.9498C19.7054 20.9498 17.0255 23.5784 17.0255 26.8092C17.0255 30.04 19.7054 32.6685 22.9995 32.6685Z" fill="#7C94FF"/>
</svg>
