<svg width="70" height="72" viewBox="0 0 70 72" fill="none" xmlns="http://www.w3.org/2000/svg">
<path d="M8.74281 52.0275C12.5236 58.2232 18.3641 62.9121 25.1884 65.2305C30.8975 67.1701 36.98 67.3834 42.7776 65.8472C48.2769 64.3902 53.2505 61.4476 57.1919 57.3256C56.505 56.3123 56.1019 55.0865 56.1019 53.7665C56.1019 50.2932 58.888 47.4675 62.3124 47.4675C65.7368 47.4675 68.5228 50.2932 68.5228 53.7665C68.5228 57.2397 65.7369 60.0654 62.3124 60.0654C61.6662 60.0654 61.0429 59.9646 60.4568 59.7781L60.5106 59.8294C55.9893 64.7055 50.2161 68.1792 43.8152 69.8751C37.2435 71.6164 30.3517 71.3751 23.8847 69.178C16.1536 66.5513 9.53673 61.2387 5.2528 54.2185C1.02451 47.2896 -0.740392 39.0477 0.283492 31.0108L4.35401 31.5441C3.45085 38.6352 5.00944 45.9097 8.74281 52.0275ZM62.3124 55.9024C63.4737 55.9024 64.4183 54.9442 64.4183 53.7665C64.4183 52.5887 63.4737 51.6305 62.3124 51.6305C61.1511 51.6305 60.2064 52.5887 60.2064 53.7665C60.2064 54.9442 61.1511 55.9024 62.3124 55.9024Z" fill="#7C94FF"/>
<path d="M69.7915 39.3907L65.7119 38.9334C66.4747 31.9336 64.841 24.7779 61.1117 18.7846C57.3306 12.7085 51.5415 8.1028 44.8105 5.81612C39.2051 3.91176 33.1966 3.67269 27.4348 5.12457C21.9626 6.50351 16.9811 9.32407 12.9991 13.2923C13.6095 14.267 13.9649 15.4215 13.9649 16.6593C13.9649 20.1326 11.1788 22.9583 7.75428 22.9583C4.32989 22.9583 1.54371 20.1326 1.54371 16.6593C1.54371 13.186 4.32976 10.3604 7.75428 10.3604C8.46276 10.3604 9.14307 10.4829 9.77785 10.7055L9.76035 10.688C14.3242 6.00582 20.0935 2.68494 26.4451 1.08441C29.2529 0.376912 32.1125 0.0242754 34.9658 0.0244141C38.7387 0.0244141 42.5003 0.641077 46.1142 1.86886C53.7394 4.45937 60.2983 9.67781 64.5826 16.5629C68.8062 23.3503 70.6563 31.4574 69.7915 39.3907ZM7.75428 14.5232C6.59313 14.5232 5.64827 15.4814 5.64827 16.6592C5.64827 17.8369 6.59299 18.7951 7.75428 18.7951C8.91557 18.7951 9.86029 17.8369 9.86029 16.6592C9.86029 15.4814 8.91557 14.5232 7.75428 14.5232Z" fill="#7C94FF"/>
<path d="M34.9994 58.335C22.5981 58.335 12.5088 48.1019 12.5088 35.5239C12.5088 22.946 22.5981 12.7129 34.9994 12.7129C47.4007 12.7129 57.49 22.946 57.49 35.5239C57.49 48.1019 47.4008 58.335 34.9994 58.335ZM34.9994 16.8758C24.8613 16.8758 16.6133 25.2414 16.6133 35.5239C16.6133 45.8065 24.8613 54.1721 34.9994 54.1721C45.1375 54.1721 53.3854 45.8065 53.3854 35.5239C53.3854 25.2414 45.1376 16.8758 34.9994 16.8758Z" fill="#7C94FF"/>
<path d="M30.9577 25.9831L35.0678 45.8914L39.086 45.038L34.9759 25.1297L30.9577 25.9831Z" fill="#7C94FF"/>
<path d="M26.2214 41.3754L20.452 35.5238L26.2214 29.6723L29.1236 32.616L26.2566 35.5238L29.1236 38.4317L26.2214 41.3754Z" fill="#7C94FF"/>
<path d="M40.8753 38.4317L43.7423 35.5238L40.8753 32.616L43.7775 29.6723L49.5469 35.5238L43.7775 41.3754L40.8753 38.4317Z" fill="#7C94FF"/>
</svg>
