<svg width="70" height="71" viewBox="0 0 70 71" fill="none" xmlns="http://www.w3.org/2000/svg">
<path d="M8.16641 8.22754H12.268V12.3291H8.16641V8.22754Z" fill="#7C94FF"/>
<path d="M16.3695 8.22754H20.4711V12.3291H16.3695V8.22754Z" fill="#7C94FF"/>
<path d="M24.5727 8.22754H28.6742V12.3291H24.5727V8.22754Z" fill="#7C94FF"/>
<path d="M50.8589 8.22754H61.7964V12.3291H50.8589V8.22754Z" fill="#7C94FF"/>
<path d="M-0.000488281 0.0244141V70.0244H69.9995V0.0244141H-0.000488281ZM4.10107 4.12598H43.7718L34.0087 16.4307H4.10107V4.12598ZM65.8979 65.9229H4.10107V20.5322H35.9902L49.0076 4.12598H65.8979V65.9229Z" fill="#7C94FF"/>
<path d="M24.6089 61.8213H61.7964V49.5166H24.6089V61.8213ZM28.7104 53.6182H57.6948V57.7197H28.7104V53.6182Z" fill="#7C94FF"/>
<path d="M8.20264 61.8213H20.5073V24.6338H8.20264V61.8213ZM12.3042 28.7354H16.4058V57.7197H12.3042V28.7354Z" fill="#7C94FF"/>
<path d="M41.0151 24.6338H24.6089V45.415H41.0151V24.6338ZM36.9136 41.3135H28.7104V28.7354H36.9136V41.3135Z" fill="#7C94FF"/>
<path d="M61.5229 24.6338H45.1167V45.415H61.5229V24.6338ZM57.4214 41.3135H49.2183V28.7354H57.4214V41.3135Z" fill="#7C94FF"/>
</svg>
