<svg width="47" height="70" viewBox="0 0 47 70" fill="none" xmlns="http://www.w3.org/2000/svg">
<path d="M30.7246 33.0207C30.7246 29.0878 27.4835 25.8881 23.4996 25.8881C19.5156 25.8881 16.2745 29.0878 16.2745 33.0207C16.2745 36.9537 19.5156 40.1534 23.4996 40.1534C27.4835 40.1534 30.7246 36.9536 30.7246 33.0207ZM23.4997 36.0516C21.8067 36.0516 20.4294 34.6919 20.4294 33.0205C20.4294 31.3493 21.8067 29.9896 23.4997 29.9896C25.1928 29.9896 26.57 31.3493 26.57 33.0205C26.5699 34.6919 25.1926 36.0516 23.4997 36.0516Z" fill="#7C94FF"/>
<path d="M46.9995 58.0175V39.9264L39.8465 35.4217C39.9316 33.4623 39.8826 31.4894 39.6918 29.5167C38.6999 19.2663 33.9605 9.72354 26.3465 2.64636L23.4996 0L20.6525 2.64636C13.0385 9.72368 8.29912 19.2665 7.30725 29.5167C7.11641 31.4894 7.06738 33.4623 7.15256 35.4217L-0.000488281 39.9264V58.0174L12.4641 54.1506C12.9826 55.0781 13.5377 55.9876 14.1283 56.8775V65.3972H18.2831V58.7891H21.4222V61.9682H25.5769V58.7891H28.7161V65.3972H32.8708V56.8775C33.4615 55.9877 34.0166 55.0781 34.5351 54.1506L46.9995 58.0175ZM42.8448 42.1752V52.4293L36.3828 50.4247C37.8325 47.0956 38.8449 43.5921 39.3966 40.0037L42.8448 42.1752ZM23.4985 5.6326C27.2794 9.14713 30.2003 13.285 32.2346 17.7575H14.7636C16.7976 13.285 19.7181 9.14699 23.4985 5.6326ZM4.15423 52.4293V42.1752L7.60237 40.0037C8.15398 43.5921 9.16635 47.0956 10.6162 50.4247L4.15423 52.4293ZM21.4222 50.9277V54.6874H17.6392C11.0522 44.8027 9.69067 32.6582 13.174 21.859H33.8246C37.3085 32.6581 35.947 44.8027 29.36 54.6874H25.5769V50.9277H21.4222Z" fill="#7C94FF"/>
<path d="M21.4223 66.1035H25.577V70H21.4223V66.1035Z" fill="#7C94FF"/>
</svg>
