<svg width="0" height="0" class="hidden">
  <symbol fill="none" xmlns="http://www.w3.org/2000/svg" viewBox="0 0 76 71" id="ai">
    <path d="M75.9995 34.8778C75.9995 38.9189 74.1292 42.6105 70.9912 44.9857C71.7052 46.4235 72.0852 48.0169 72.0852 49.6413C72.0852 55.4253 67.3679 60.1298 61.5699 60.1298C61.0044 60.1298 60.4388 60.0839 59.8822 59.9935C58.8891 65.6842 53.9016 70.0244 47.9166 70.0244C43.8257 70.0244 40.1994 67.9957 37.9995 64.8935C35.7997 67.9957 32.1733 70.0244 28.0824 70.0244C22.0974 70.0244 17.1099 65.6842 16.1169 59.9935C15.5602 60.0839 14.9947 60.1298 14.4291 60.1298C8.63115 60.1298 3.91381 55.4253 3.91381 49.6413C3.91381 48.0169 4.29381 46.4235 5.00779 44.9857C1.86982 42.6105 -0.000488281 38.9189 -0.000488281 34.8778C-0.000488281 30.6546 2.13553 26.7157 5.57334 24.3716C5.31506 23.3573 5.18443 22.3133 5.18443 21.2501C5.18443 14.7346 10.1229 9.35044 16.4612 8.62337C17.9887 3.61088 22.6926 0.0244141 28.0824 0.0244141C32.1733 0.0244141 35.7997 2.05309 37.9995 5.15535C40.1994 2.05309 43.8257 0.0244141 47.9166 0.0244141C53.3064 0.0244141 58.0104 3.61088 59.5378 8.62337C65.8761 9.35044 70.8146 14.7346 70.8146 21.2501C70.8146 22.3133 70.684 23.3573 70.4257 24.3716C73.8635 26.7157 75.9995 30.6546 75.9995 34.8778ZM35.7729 12.1402C35.7729 7.90962 32.3233 4.46679 28.0824 4.46679C24.2631 4.46679 20.9901 7.30695 20.4661 11.0741L20.1915 13.0509L18.1059 12.9858C18.0465 12.9843 17.9857 12.9813 17.9263 12.9813C13.3559 12.9813 9.63756 16.6907 9.63756 21.2501C9.63756 22.3814 9.86318 23.4772 10.3085 24.5093L11.1576 26.4802L9.21154 27.3954C6.32147 28.7562 4.45264 31.6926 4.45264 34.8778C4.45264 38.0541 6.22943 40.8987 9.09131 42.301L11.6548 43.5582L9.80678 45.732C8.87904 46.8234 8.36693 48.2109 8.36693 49.6413C8.36693 52.9746 11.0863 55.6874 14.4291 55.6874C15.3999 55.6874 16.3291 55.4638 17.1901 55.0225L20.7926 53.1789L20.4245 57.2008C20.4022 57.454 20.3904 57.685 20.3904 57.9086C20.3904 62.1392 23.8415 65.582 28.0824 65.582C32.3233 65.582 35.7729 62.1392 35.7729 57.9086V51.8788H21.1044V45.7538H17.443V41.3114H21.1044V37.2456H17.443V32.8032H21.1044V28.7374H17.443V24.295H21.1044V18.17H35.7729V12.1402ZM25.5575 22.6124V47.4364H50.4415V22.6124H25.5575ZM66.7875 27.3954L64.8415 26.4802L65.6905 24.5093C66.1358 23.4772 66.3615 22.3814 66.3615 21.2501C66.3615 16.6907 62.6431 12.9813 58.0727 12.9813C58.0133 12.9813 57.9525 12.9843 57.8931 12.9858L55.8076 13.0509L55.533 11.0741C55.009 7.30695 51.7359 4.46679 47.9166 4.46679C43.6758 4.46679 40.2261 7.90962 40.2261 12.1402V18.17H54.8947V24.295H58.556V28.7374H54.8947V32.8032H58.556V37.2456H54.8947V41.3114H58.556V45.7538H54.8947V51.8788H40.2261V57.9086C40.2261 62.1392 43.6758 65.582 47.9166 65.582C52.1575 65.582 55.6087 62.1392 55.6087 57.9086C55.6087 57.685 55.5968 57.454 55.5745 57.2008L55.2064 53.1789L58.809 55.0225C59.6699 55.4638 60.5991 55.6874 61.5699 55.6874C64.9127 55.6874 67.6321 52.9746 67.6321 49.6413C67.6321 48.2109 67.12 46.8234 66.1922 45.732L64.3442 43.5582L66.9077 42.301C69.7696 40.8987 71.5464 38.0541 71.5464 34.8778C71.5464 31.6926 69.6776 28.7562 66.7875 27.3954Z" fill="#7C94FF"></path>
    <path d="M29.5876 43.416V26.6327H46.4115V43.416H29.5876ZM41.9583 31.0751H34.0407V38.9736H41.9583V31.0751Z" fill="#7C94FF"></path>
  </symbol>
  <symbol fill="none" xmlns="http://www.w3.org/2000/svg" viewBox="0 0 46 70" id="app">
    <path d="M6.27224 0H39.7268C43.1856 0 45.9995 2.75994 45.9995 6.15234V63.8477C45.9995 67.2401 43.1856 70 39.7268 70H6.27224C2.81346 70 -0.000488281 67.2401 -0.000488281 63.8477V6.15234C-0.000488281 2.75994 2.81346 0 6.27224 0ZM4.18133 63.8477C4.18133 64.9785 5.11931 65.8984 6.27224 65.8984H39.7268C40.8797 65.8984 41.8177 64.9785 41.8177 63.8477V53.6184H4.18133V63.8477ZM41.8177 49.5168V6.15234C41.8177 5.02154 40.8797 4.10156 39.7268 4.10156H6.27224C5.11931 4.10156 4.18133 5.02154 4.18133 6.15234V49.5168H41.8177Z" fill="#7C94FF"></path>
    <path d="M25.0904 57.7113H20.9086V61.8129H25.0904V57.7113Z" fill="#7C94FF"></path>
    <path d="M14.4975 21.3705L11.4672 18.3984L14.4241 15.4982L17.4544 18.4703C18.4908 17.805 19.6571 17.3194 20.9086 17.0615V12.8639H25.0904V17.0615C26.3418 17.3195 27.5081 17.805 28.5446 18.4703L31.5749 15.4982L34.5318 18.3984L31.5016 21.3705C32.1799 22.387 32.675 23.5309 32.9379 24.7583H37.2177V28.8598H32.9379C32.6748 30.0871 32.1799 31.2311 31.5016 32.2476L34.5318 35.2197L31.5749 38.1199L28.5446 35.1478C27.5082 35.8131 26.3419 36.2987 25.0904 36.5565V40.7542H20.9086V36.5565C19.6571 36.2986 18.491 35.8129 17.4544 35.1478L14.4241 38.1199L11.4672 35.2197L14.4975 32.2476C13.8192 31.2311 13.324 30.0871 13.061 28.8597H8.78133V24.7581H13.0611C13.3242 23.5309 13.8192 22.387 14.4975 21.3705ZM22.9995 32.6685C26.2935 32.6685 28.9735 30.04 28.9735 26.8092C28.9735 23.5784 26.2935 20.9498 22.9995 20.9498C19.7054 20.9498 17.0255 23.5784 17.0255 26.8092C17.0255 30.04 19.7054 32.6685 22.9995 32.6685Z" fill="#7C94FF"></path>
  </symbol>
  <symbol fill="none" xmlns="http://www.w3.org/2000/svg" viewBox="0 0 70 72" id="code">
    <path d="M8.74281 52.0275C12.5236 58.2232 18.3641 62.9121 25.1884 65.2305C30.8975 67.1701 36.98 67.3834 42.7776 65.8472C48.2769 64.3902 53.2505 61.4476 57.1919 57.3256C56.505 56.3123 56.1019 55.0865 56.1019 53.7665C56.1019 50.2932 58.888 47.4675 62.3124 47.4675C65.7368 47.4675 68.5228 50.2932 68.5228 53.7665C68.5228 57.2397 65.7369 60.0654 62.3124 60.0654C61.6662 60.0654 61.0429 59.9646 60.4568 59.7781L60.5106 59.8294C55.9893 64.7055 50.2161 68.1792 43.8152 69.8751C37.2435 71.6164 30.3517 71.3751 23.8847 69.178C16.1536 66.5513 9.53673 61.2387 5.2528 54.2185C1.02451 47.2896 -0.740392 39.0477 0.283492 31.0108L4.35401 31.5441C3.45085 38.6352 5.00944 45.9097 8.74281 52.0275ZM62.3124 55.9024C63.4737 55.9024 64.4183 54.9442 64.4183 53.7665C64.4183 52.5887 63.4737 51.6305 62.3124 51.6305C61.1511 51.6305 60.2064 52.5887 60.2064 53.7665C60.2064 54.9442 61.1511 55.9024 62.3124 55.9024Z" fill="#7C94FF"></path>
    <path d="M69.7915 39.3907L65.7119 38.9334C66.4747 31.9336 64.841 24.7779 61.1117 18.7846C57.3306 12.7085 51.5415 8.1028 44.8105 5.81612C39.2051 3.91176 33.1966 3.67269 27.4348 5.12457C21.9626 6.50351 16.9811 9.32407 12.9991 13.2923C13.6095 14.267 13.9649 15.4215 13.9649 16.6593C13.9649 20.1326 11.1788 22.9583 7.75428 22.9583C4.32989 22.9583 1.54371 20.1326 1.54371 16.6593C1.54371 13.186 4.32976 10.3604 7.75428 10.3604C8.46276 10.3604 9.14307 10.4829 9.77785 10.7055L9.76035 10.688C14.3242 6.00582 20.0935 2.68494 26.4451 1.08441C29.2529 0.376912 32.1125 0.0242754 34.9658 0.0244141C38.7387 0.0244141 42.5003 0.641077 46.1142 1.86886C53.7394 4.45937 60.2983 9.67781 64.5826 16.5629C68.8062 23.3503 70.6563 31.4574 69.7915 39.3907ZM7.75428 14.5232C6.59313 14.5232 5.64827 15.4814 5.64827 16.6592C5.64827 17.8369 6.59299 18.7951 7.75428 18.7951C8.91557 18.7951 9.86029 17.8369 9.86029 16.6592C9.86029 15.4814 8.91557 14.5232 7.75428 14.5232Z" fill="#7C94FF"></path>
    <path d="M34.9994 58.335C22.5981 58.335 12.5088 48.1019 12.5088 35.5239C12.5088 22.946 22.5981 12.7129 34.9994 12.7129C47.4007 12.7129 57.49 22.946 57.49 35.5239C57.49 48.1019 47.4008 58.335 34.9994 58.335ZM34.9994 16.8758C24.8613 16.8758 16.6133 25.2414 16.6133 35.5239C16.6133 45.8065 24.8613 54.1721 34.9994 54.1721C45.1375 54.1721 53.3854 45.8065 53.3854 35.5239C53.3854 25.2414 45.1376 16.8758 34.9994 16.8758Z" fill="#7C94FF"></path>
    <path d="M30.9577 25.9831L35.0678 45.8914L39.086 45.038L34.9759 25.1297L30.9577 25.9831Z" fill="#7C94FF"></path>
    <path d="M26.2214 41.3754L20.452 35.5238L26.2214 29.6723L29.1236 32.616L26.2566 35.5238L29.1236 38.4317L26.2214 41.3754Z" fill="#7C94FF"></path>
    <path d="M40.8753 38.4317L43.7423 35.5238L40.8753 32.616L43.7775 29.6723L49.5469 35.5238L43.7775 41.3754L40.8753 38.4317Z" fill="#7C94FF"></path>
  </symbol>
  <symbol fill="none" xmlns="http://www.w3.org/2000/svg" viewBox="0 0 70 71" id="design">
    <path d="M8.16641 8.22754H12.268V12.3291H8.16641V8.22754Z" fill="#7C94FF"></path>
    <path d="M16.3695 8.22754H20.4711V12.3291H16.3695V8.22754Z" fill="#7C94FF"></path>
    <path d="M24.5727 8.22754H28.6742V12.3291H24.5727V8.22754Z" fill="#7C94FF"></path>
    <path d="M50.8589 8.22754H61.7964V12.3291H50.8589V8.22754Z" fill="#7C94FF"></path>
    <path d="M-0.000488281 0.0244141V70.0244H69.9995V0.0244141H-0.000488281ZM4.10107 4.12598H43.7718L34.0087 16.4307H4.10107V4.12598ZM65.8979 65.9229H4.10107V20.5322H35.9902L49.0076 4.12598H65.8979V65.9229Z" fill="#7C94FF"></path>
    <path d="M24.6089 61.8213H61.7964V49.5166H24.6089V61.8213ZM28.7104 53.6182H57.6948V57.7197H28.7104V53.6182Z" fill="#7C94FF"></path>
    <path d="M8.20264 61.8213H20.5073V24.6338H8.20264V61.8213ZM12.3042 28.7354H16.4058V57.7197H12.3042V28.7354Z" fill="#7C94FF"></path>
    <path d="M41.0151 24.6338H24.6089V45.415H41.0151V24.6338ZM36.9136 41.3135H28.7104V28.7354H36.9136V41.3135Z" fill="#7C94FF"></path>
    <path d="M61.5229 24.6338H45.1167V45.415H61.5229V24.6338ZM57.4214 41.3135H49.2183V28.7354H57.4214V41.3135Z" fill="#7C94FF"></path>
  </symbol>
  <symbol fill="none" xmlns="http://www.w3.org/2000/svg" viewBox="0 0 47 70" id="rocket">
    <path d="M30.7246 33.0207C30.7246 29.0878 27.4835 25.8881 23.4996 25.8881C19.5156 25.8881 16.2745 29.0878 16.2745 33.0207C16.2745 36.9537 19.5156 40.1534 23.4996 40.1534C27.4835 40.1534 30.7246 36.9536 30.7246 33.0207ZM23.4997 36.0516C21.8067 36.0516 20.4294 34.6919 20.4294 33.0205C20.4294 31.3493 21.8067 29.9896 23.4997 29.9896C25.1928 29.9896 26.57 31.3493 26.57 33.0205C26.5699 34.6919 25.1926 36.0516 23.4997 36.0516Z" fill="#7C94FF"></path>
    <path d="M46.9995 58.0175V39.9264L39.8465 35.4217C39.9316 33.4623 39.8826 31.4894 39.6918 29.5167C38.6999 19.2663 33.9605 9.72354 26.3465 2.64636L23.4996 0L20.6525 2.64636C13.0385 9.72368 8.29912 19.2665 7.30725 29.5167C7.11641 31.4894 7.06738 33.4623 7.15256 35.4217L-0.000488281 39.9264V58.0174L12.4641 54.1506C12.9826 55.0781 13.5377 55.9876 14.1283 56.8775V65.3972H18.2831V58.7891H21.4222V61.9682H25.5769V58.7891H28.7161V65.3972H32.8708V56.8775C33.4615 55.9877 34.0166 55.0781 34.5351 54.1506L46.9995 58.0175ZM42.8448 42.1752V52.4293L36.3828 50.4247C37.8325 47.0956 38.8449 43.5921 39.3966 40.0037L42.8448 42.1752ZM23.4985 5.6326C27.2794 9.14713 30.2003 13.285 32.2346 17.7575H14.7636C16.7976 13.285 19.7181 9.14699 23.4985 5.6326ZM4.15423 52.4293V42.1752L7.60237 40.0037C8.15398 43.5921 9.16635 47.0956 10.6162 50.4247L4.15423 52.4293ZM21.4222 50.9277V54.6874H17.6392C11.0522 44.8027 9.69067 32.6582 13.174 21.859H33.8246C37.3085 32.6581 35.947 44.8027 29.36 54.6874H25.5769V50.9277H21.4222Z" fill="#7C94FF"></path>
    <path d="M21.4223 66.1035H25.577V70H21.4223V66.1035Z" fill="#7C94FF"></path>
  </symbol>
  <symbol fill="none" xmlns="http://www.w3.org/2000/svg" viewBox="0 0 70 71" id="web">
    <path d="M32.4019 5.54688H26.9331V0H32.4019V5.54688ZM64.5308 0H59.1987V5.54688H64.5308V10.9551H69.9995V5.54688C69.9995 2.48363 67.5509 0 64.5308 0ZM43.0659 0H37.5972V5.54688H43.0659V0ZM53.73 0H48.2612V5.54688H53.73V0ZM21.7378 0H16.269V5.54688H21.7378V0ZM-0.000488281 5.54688V10.9551H5.46826V5.54688H10.6636V0H5.46826C2.44817 0 -0.000488281 2.48363 -0.000488281 5.54688ZM26.6597 71H32.1284V65.4531H26.6597V71ZM64.5308 65.4531H59.1987V71H64.5308C67.5509 71 69.9995 68.5164 69.9995 65.4531V59.9063H64.5308V65.4531ZM37.3237 71H42.7925V65.4531H37.3237V71ZM48.2612 71H53.73V65.4531H48.2612V71ZM15.9956 71H21.4644V65.4531H15.9956V71ZM64.5308 32.7266H69.9995V27.1797H64.5308V32.7266ZM64.5308 43.543H69.9995V37.9961H64.5308V43.543ZM64.5308 54.6367H69.9995V49.0898H64.5308V54.6367ZM64.5308 21.9102H69.9995V16.3633H64.5308V21.9102ZM5.46826 27.1797H-0.000488281V32.7266H5.46826V27.1797ZM5.46826 37.9961H-0.000488281V43.543H5.46826V37.9961ZM5.46826 49.0898H-0.000488281V54.6367H5.46826V49.0898ZM5.46826 16.3633H-0.000488281V21.9102H5.46826V16.3633ZM5.46826 59.9063H-0.000488281V65.4531C-0.000488281 68.5164 2.44817 71 5.46826 71H10.6636V65.4531H5.46826V59.9063ZM10.937 10.9551H59.062V32.7266H10.937V10.9551ZM16.4058 27.1797H53.5933V16.502H16.4058V27.1797ZM10.937 38.2734H32.2651V60.0449H10.937V38.2734ZM16.4058 54.4981H26.7964V43.8203H16.4058V54.4981ZM37.7339 38.2734H59.062V60.0449H37.7339V38.2734ZM43.2026 54.4981H53.5933V43.8203H43.2026V54.4981Z" fill="#7C94FF"></path>
  </symbol>
</svg>