<svg width="70" height="71" viewBox="0 0 70 71" fill="none" xmlns="http://www.w3.org/2000/svg">
<path d="M32.4019 5.54688H26.9331V0H32.4019V5.54688ZM64.5308 0H59.1987V5.54688H64.5308V10.9551H69.9995V5.54688C69.9995 2.48363 67.5509 0 64.5308 0ZM43.0659 0H37.5972V5.54688H43.0659V0ZM53.73 0H48.2612V5.54688H53.73V0ZM21.7378 0H16.269V5.54688H21.7378V0ZM-0.000488281 5.54688V10.9551H5.46826V5.54688H10.6636V0H5.46826C2.44817 0 -0.000488281 2.48363 -0.000488281 5.54688ZM26.6597 71H32.1284V65.4531H26.6597V71ZM64.5308 65.4531H59.1987V71H64.5308C67.5509 71 69.9995 68.5164 69.9995 65.4531V59.9063H64.5308V65.4531ZM37.3237 71H42.7925V65.4531H37.3237V71ZM48.2612 71H53.73V65.4531H48.2612V71ZM15.9956 71H21.4644V65.4531H15.9956V71ZM64.5308 32.7266H69.9995V27.1797H64.5308V32.7266ZM64.5308 43.543H69.9995V37.9961H64.5308V43.543ZM64.5308 54.6367H69.9995V49.0898H64.5308V54.6367ZM64.5308 21.9102H69.9995V16.3633H64.5308V21.9102ZM5.46826 27.1797H-0.000488281V32.7266H5.46826V27.1797ZM5.46826 37.9961H-0.000488281V43.543H5.46826V37.9961ZM5.46826 49.0898H-0.000488281V54.6367H5.46826V49.0898ZM5.46826 16.3633H-0.000488281V21.9102H5.46826V16.3633ZM5.46826 59.9063H-0.000488281V65.4531C-0.000488281 68.5164 2.44817 71 5.46826 71H10.6636V65.4531H5.46826V59.9063ZM10.937 10.9551H59.062V32.7266H10.937V10.9551ZM16.4058 27.1797H53.5933V16.502H16.4058V27.1797ZM10.937 38.2734H32.2651V60.0449H10.937V38.2734ZM16.4058 54.4981H26.7964V43.8203H16.4058V54.4981ZM37.7339 38.2734H59.062V60.0449H37.7339V38.2734ZM43.2026 54.4981H53.5933V43.8203H43.2026V54.4981Z" fill="#7C94FF"/>
</svg>
